<svg width="52" height="24" viewBox="0 0 52 24" fill="none" xmlns="http://www.w3.org/2000/svg">
<g clip-path="url(#clip0_3131_12113)">
<path d="M52 0H0V15.5294H52V0Z" fill="#5BA829"/>
<path d="M52 15.5293H0V23.9999H52V15.5293Z" fill="#212121"/>
<path d="M12.1096 0H0V15.5294H12.1096V0Z" fill="#6BC530"/>
<path d="M21.1943 7.76775C21.1943 8.38836 21.0992 8.95306 20.9089 9.46186C20.7187 9.97066 20.4502 10.4063 20.1034 10.7686C19.7565 11.1309 19.3407 11.4123 18.8559 11.6128C18.371 11.8093 17.834 11.9076 17.2446 11.9076H14.2461V3.62207H17.2446C17.834 3.62207 18.371 3.72229 18.8559 3.92273C19.3407 4.11932 19.7565 4.40071 20.1034 4.7669C20.4502 5.12924 20.7187 5.56481 20.9089 6.07363C21.0992 6.58244 21.1943 7.14713 21.1943 7.76775ZM20.081 7.76775C20.081 7.25895 20.0139 6.80408 19.8796 6.4032C19.7453 6.00231 19.5552 5.66311 19.309 5.38557C19.0628 5.10804 18.7645 4.89603 18.4139 4.74956C18.0633 4.60308 17.6735 4.52984 17.2446 4.52984H15.337V10.9998H17.2446C17.6735 10.9998 18.0633 10.9266 18.4139 10.7802C18.7645 10.6337 19.0628 10.4236 19.309 10.1499C19.5552 9.8724 19.7453 9.53316 19.8796 9.13229C20.0139 8.73142 20.081 8.27655 20.081 7.76775Z" fill="white"/>
<path d="M27.7341 8.91255C27.7863 9.00509 27.831 9.10335 27.8683 9.20746C27.9094 9.3077 27.9485 9.40984 27.9858 9.51389C28.0231 9.40596 28.0622 9.30382 28.1033 9.20746C28.1443 9.10723 28.191 9.00699 28.2432 8.90676L30.9564 3.81287C31.0049 3.72422 31.0552 3.67025 31.1074 3.65098C31.1597 3.63171 31.2342 3.62207 31.3313 3.62207H32.1312V11.9076H31.1802V5.81922C31.1802 5.73827 31.182 5.65154 31.1858 5.55903C31.1895 5.46652 31.1951 5.37208 31.2025 5.27571L28.4557 10.4564C28.3625 10.6298 28.232 10.7166 28.0642 10.7166H27.9075C27.7397 10.7166 27.6091 10.6298 27.5159 10.4564L24.7075 5.25837C24.7187 5.35859 24.7262 5.45688 24.7299 5.55324C24.7374 5.64961 24.7411 5.73827 24.7411 5.81922V11.9076H23.79V3.62207H24.5901C24.687 3.62207 24.7616 3.63171 24.8138 3.65098C24.866 3.67025 24.9164 3.72422 24.9649 3.81287L27.7341 8.91255Z" fill="white"/>
<path d="M40.8517 10.1959C40.9113 10.1959 40.9654 10.221 41.0139 10.2711L41.4391 10.751C41.1108 11.1441 40.7118 11.4506 40.2419 11.6703C39.7757 11.89 39.2125 11.9999 38.5524 11.9999C37.9743 11.9999 37.4503 11.8977 36.9804 11.6935C36.5105 11.4853 36.1095 11.1962 35.7776 10.8261C35.4457 10.4522 35.1883 10.0051 35.0055 9.48476C34.8228 8.96438 34.7314 8.39191 34.7314 7.76749C34.7314 7.14306 34.8285 6.57061 35.0224 6.05024C35.22 5.52986 35.496 5.08272 35.8503 4.70882C36.2046 4.33492 36.6279 4.04582 37.1202 3.84152C37.6163 3.63337 38.1627 3.5293 38.7594 3.5293C39.3487 3.5293 39.8559 3.62374 40.2811 3.81261C40.71 4.00149 41.0903 4.25782 41.4223 4.58162L41.0698 5.09621C41.0437 5.13476 41.0139 5.16752 40.9803 5.19451C40.9468 5.21763 40.8983 5.2292 40.8349 5.2292C40.7864 5.2292 40.7342 5.21185 40.6783 5.17716C40.626 5.13861 40.5626 5.09235 40.4881 5.03839C40.4135 4.98442 40.3258 4.92661 40.2251 4.86493C40.1244 4.80326 40.005 4.74544 39.867 4.69148C39.7291 4.63751 39.5687 4.59318 39.3859 4.55849C39.2032 4.51994 38.9925 4.50067 38.7538 4.50067C38.3249 4.50067 37.9314 4.57776 37.5734 4.73194C37.2191 4.88228 36.9132 5.09814 36.6559 5.37953C36.3986 5.66092 36.1972 6.00398 36.0517 6.40872C35.91 6.81346 35.8391 7.26638 35.8391 7.76749C35.8391 8.28398 35.91 8.74464 36.0517 9.14939C36.1972 9.55414 36.393 9.8972 36.6391 10.1786C36.889 10.4561 37.1836 10.6681 37.5231 10.8146C37.8624 10.961 38.2279 11.0343 38.6196 11.0343C38.8583 11.0343 39.0727 11.0208 39.2629 10.9938C39.4531 10.963 39.6284 10.9167 39.7888 10.8551C39.9528 10.7934 40.1039 10.7163 40.2419 10.6238C40.3836 10.5274 40.5253 10.4137 40.6671 10.2826C40.7305 10.2248 40.792 10.1959 40.8517 10.1959Z" fill="white"/>
<path d="M50.5757 11.9076H49.7366C49.6396 11.9076 49.5613 11.8825 49.5016 11.8325C49.4419 11.7824 49.3972 11.7188 49.3673 11.6417L48.6177 9.64109H45.0206L44.2709 11.6417C44.2448 11.711 44.2 11.7727 44.1366 11.8267C44.0732 11.8806 43.9949 11.9076 43.9017 11.9076H43.0625L46.2681 3.62207H47.3702L50.5757 11.9076ZM45.3226 8.83165H48.3156L47.0569 5.46074C46.9748 5.25259 46.8946 4.9924 46.8163 4.68017C46.7753 4.83821 46.7343 4.98468 46.6932 5.1196C46.656 5.25066 46.6187 5.3663 46.5813 5.46652L45.3226 8.83165Z" fill="white"/>
<path d="M2.13672 5.64697H9.97233V11.9999C9.97233 12.7796 9.33452 13.4117 8.54768 13.4117H3.56138C2.77456 13.4117 2.13672 12.7796 2.13672 11.9999V5.64697Z" fill="white"/>
<path fill-rule="evenodd" clip-rule="evenodd" d="M8.0902 4.94121C7.92145 3.97884 7.07449 3.24709 6.05506 3.24709C5.03563 3.24709 4.18867 3.97884 4.01989 4.94121H2.86914C3.04632 3.35298 4.40511 2.11768 6.05506 2.11768C7.70504 2.11768 9.06381 3.35298 9.24096 4.94121H8.0902Z" fill="white"/>
<path d="M6.05482 9.17624C6.64493 9.17624 7.12331 8.70219 7.12331 8.11742C7.12331 7.53265 6.64493 7.05859 6.05482 7.05859C5.46471 7.05859 4.98633 7.53265 4.98633 8.11742C4.98633 8.70219 5.46471 9.17624 6.05482 9.17624Z" fill="#6BC530"/>
<path d="M4.98633 11.2942L5.69866 8.4707H6.41099L7.12331 11.2942H4.98633Z" fill="#6BC530"/>
<path d="M3.10227 20.5579V21.8821H2.62109V18.3418H3.6757C3.90174 18.3418 4.09787 18.3682 4.26408 18.4209C4.43195 18.472 4.57074 18.5452 4.68044 18.6407C4.79013 18.7363 4.87158 18.8516 4.92477 18.9866C4.97961 19.1217 5.00704 19.2724 5.00704 19.4387C5.00704 19.6035 4.97795 19.7542 4.91978 19.8909C4.8616 20.0276 4.77601 20.1453 4.66298 20.2441C4.55163 20.343 4.41284 20.4204 4.24663 20.4764C4.08042 20.5307 3.89011 20.5579 3.6757 20.5579H3.10227ZM3.10227 20.1774H3.6757C3.81365 20.1774 3.93498 20.1594 4.0397 20.1231C4.14607 20.0869 4.235 20.0366 4.30646 19.9724C4.37793 19.9065 4.43195 19.8283 4.46852 19.7377C4.50508 19.6471 4.52337 19.5474 4.52337 19.4387C4.52337 19.2131 4.45273 19.0369 4.31145 18.91C4.17183 18.7833 3.95992 18.7198 3.6757 18.7198H3.10227V20.1774Z" fill="white"/>
<path d="M8.64329 20.4047V21.8821H8.16211V18.3418H9.17184C9.39786 18.3418 9.59318 18.3649 9.75773 18.411C9.92227 18.4554 10.0578 18.5205 10.1641 18.6061C10.2722 18.6918 10.352 18.7956 10.4035 18.9174C10.455 19.0377 10.4807 19.1728 10.4807 19.3226C10.4807 19.4478 10.4608 19.5647 10.4209 19.6734C10.381 19.7821 10.3228 19.8802 10.2464 19.9674C10.1716 20.0531 10.0793 20.1264 9.96964 20.1873C9.86158 20.2483 9.73864 20.2944 9.60066 20.3257C9.66049 20.3603 9.7137 20.4105 9.76022 20.4764L10.8024 21.8821H10.3735C10.2854 21.8821 10.2206 21.8484 10.1791 21.7809L9.25162 20.5159C9.22334 20.4764 9.19264 20.4484 9.15937 20.4319C9.1261 20.4138 9.07624 20.4047 9.00978 20.4047H8.64329ZM8.64329 20.0564H9.1494C9.29065 20.0564 9.41453 20.0399 9.52088 20.007C9.62894 19.9724 9.71869 19.9247 9.79014 19.8637C9.86329 19.8011 9.91814 19.727 9.95469 19.6413C9.99123 19.5557 10.0095 19.461 10.0095 19.3572C10.0095 19.1464 9.93887 18.9875 9.79762 18.8804C9.658 18.7734 9.44943 18.7198 9.17184 18.7198H8.64329V20.0564Z" fill="white"/>
<path d="M17.016 20.1132C17.016 20.3784 16.9736 20.6221 16.8888 20.8445C16.8041 21.0652 16.6844 21.2554 16.5298 21.4152C16.3752 21.575 16.1891 21.6993 15.9714 21.7882C15.7553 21.8756 15.516 21.9192 15.2533 21.9192C14.9907 21.9192 14.7513 21.8756 14.5353 21.7882C14.3193 21.6993 14.1339 21.575 13.9793 21.4152C13.8248 21.2554 13.7051 21.0652 13.6203 20.8445C13.5355 20.6221 13.4932 20.3784 13.4932 20.1132C13.4932 19.8481 13.5355 19.6051 13.6203 19.3844C13.7051 19.162 13.8248 18.971 13.9793 18.8112C14.1339 18.6498 14.3193 18.5246 14.5353 18.4357C14.7513 18.3467 14.9907 18.3022 15.2533 18.3022C15.516 18.3022 15.7553 18.3467 15.9714 18.4357C16.1891 18.5246 16.3752 18.6498 16.5298 18.8112C16.6844 18.971 16.8041 19.162 16.8888 19.3844C16.9736 19.6051 17.016 19.8481 17.016 20.1132ZM16.5198 20.1132C16.5198 19.8958 16.4899 19.7006 16.4301 19.5277C16.3703 19.3547 16.2855 19.209 16.1758 19.0904C16.0661 18.9702 15.9331 18.8779 15.7769 18.8137C15.6207 18.7494 15.4462 18.7173 15.2533 18.7173C15.0622 18.7173 14.8885 18.7494 14.7323 18.8137C14.576 18.8779 14.4422 18.9702 14.3309 19.0904C14.2212 19.209 14.1364 19.3547 14.0766 19.5277C14.0167 19.7006 13.9868 19.8958 13.9868 20.1132C13.9868 20.3306 14.0167 20.5258 14.0766 20.6987C14.1364 20.87 14.2212 21.0158 14.3309 21.136C14.4422 21.2546 14.576 21.346 14.7323 21.4102C14.8885 21.4729 15.0622 21.5041 15.2533 21.5041C15.4462 21.5041 15.6207 21.4729 15.7769 21.4102C15.9331 21.346 16.0661 21.2546 16.1758 21.136C16.2855 21.0158 16.3703 20.87 16.4301 20.6987C16.4899 20.5258 16.5198 20.3306 16.5198 20.1132Z" fill="white"/>
<path d="M22.3588 18.3418V18.7445H21.2045V21.8821H20.7208V18.7445H19.5615V18.3418H22.3588Z" fill="white"/>
<path d="M27.5618 18.3418V18.7321H25.8465V19.9081H27.2352V20.2837H25.8465V21.4918H27.5618V21.8821H25.3604V18.3418H27.5618Z" fill="white"/>
<path d="M33.2685 21.1508C33.2951 21.1508 33.3192 21.1616 33.3408 21.183L33.5303 21.388C33.384 21.556 33.2062 21.687 32.9968 21.7808C32.789 21.8747 32.538 21.9217 32.2438 21.9217C31.9862 21.9217 31.7527 21.878 31.5433 21.7907C31.3338 21.7018 31.1551 21.5782 31.0072 21.4201C30.8593 21.2604 30.7446 21.0693 30.6632 20.847C30.5817 20.6246 30.541 20.38 30.541 20.1132C30.541 19.8464 30.5842 19.6018 30.6707 19.3794C30.7587 19.1571 30.8817 18.9661 31.0396 18.8062C31.1975 18.6465 31.3862 18.523 31.6056 18.4357C31.8266 18.3467 32.0701 18.3022 32.3361 18.3022C32.5986 18.3022 32.8247 18.3426 33.0142 18.4233C33.2053 18.5041 33.3749 18.6135 33.5228 18.7519L33.3658 18.9718C33.3541 18.9883 33.3408 19.0023 33.3259 19.0138C33.3109 19.0237 33.2892 19.0286 33.261 19.0286C33.2394 19.0286 33.2162 19.0212 33.1912 19.0064C33.1679 18.9899 33.1397 18.9702 33.1065 18.9471C33.0732 18.9241 33.0342 18.8994 32.9893 18.873C32.9444 18.8466 32.8912 18.8219 32.8297 18.7988C32.7682 18.7758 32.6967 18.7568 32.6153 18.742C32.5338 18.7256 32.4399 18.7173 32.3336 18.7173C32.1424 18.7173 31.9671 18.7503 31.8075 18.8161C31.6496 18.8804 31.5133 18.9726 31.3987 19.0928C31.284 19.2131 31.1942 19.3597 31.1294 19.5326C31.0662 19.7055 31.0347 19.8991 31.0347 20.1132C31.0347 20.3339 31.0662 20.5307 31.1294 20.7037C31.1942 20.8766 31.2815 21.0232 31.3912 21.1434C31.5025 21.262 31.6338 21.3526 31.7851 21.4152C31.9363 21.4778 32.0992 21.5091 32.2738 21.5091C32.3801 21.5091 32.4757 21.5034 32.5605 21.4918C32.6452 21.4786 32.7233 21.4589 32.7948 21.4325C32.8679 21.4062 32.9352 21.3732 32.9968 21.3337C33.0599 21.2925 33.1231 21.2439 33.1862 21.1879C33.2145 21.1632 33.2419 21.1508 33.2685 21.1508Z" fill="white"/>
<path d="M39.0903 18.3418V18.7445H37.936V21.8821H37.4523V18.7445H36.293V18.3418H39.0903Z" fill="white"/>
<path d="M44.2923 18.3418V18.7321H42.577V19.9081H43.9657V20.2837H42.577V21.4918H44.2923V21.8821H42.0908V18.3418H44.2923Z" fill="white"/>
<path d="M50.5779 20.1132C50.5779 20.3784 50.5355 20.6197 50.4507 20.8371C50.366 21.0545 50.2463 21.2406 50.0917 21.3954C49.9371 21.5503 49.7519 21.6705 49.5358 21.7561C49.3197 21.8401 49.0803 21.8821 48.8178 21.8821H47.4814V18.3418H48.8178C49.0803 18.3418 49.3197 18.3846 49.5358 18.4703C49.7519 18.5543 49.9371 18.6745 50.0917 18.831C50.2463 18.9858 50.366 19.1719 50.4507 19.3893C50.5355 19.6067 50.5779 19.8481 50.5779 20.1132ZM50.0817 20.1132C50.0817 19.8958 50.0518 19.7015 49.992 19.5301C49.9321 19.3589 49.8474 19.2139 49.7377 19.0953C49.628 18.9767 49.4951 18.8862 49.3388 18.8236C49.1826 18.761 49.0089 18.7297 48.8178 18.7297H47.9675V21.4943H48.8178C49.0089 21.4943 49.1826 21.463 49.3388 21.4004C49.4951 21.3378 49.628 21.2481 49.7377 21.1311C49.8474 21.0125 49.9321 20.8676 49.992 20.6963C50.0518 20.525 50.0817 20.3306 50.0817 20.1132Z" fill="white"/>
</g>
<defs>
<clipPath id="clip0_3131_12113">
<rect width="52" height="24" fill="white"/>
</clipPath>
</defs>
</svg>
