<svg width="102" height="22" viewBox="0 0 102 22" fill="none" xmlns="http://www.w3.org/2000/svg">
<path d="M35.7804 21.8745H35.0372V13.3388H35.7804V21.8745ZM41.5522 13.3388C42.221 13.3388 42.8651 13.4364 43.5092 13.6315C44.0541 13.8022 44.5743 14.0948 44.9954 14.4851C45.3918 14.8509 45.7138 15.3142 45.912 15.8264C46.3579 16.9726 46.3579 18.2164 45.912 19.3626C45.7138 19.8748 45.3918 20.3381 44.9706 20.7039C44.5495 21.0941 44.0294 21.3867 43.4844 21.5575C42.8651 21.7526 42.1963 21.8745 41.5274 21.8502H38.3814V13.3145L41.5522 13.3388ZM39.1494 14.0461V21.1673H41.5522C42.1219 21.1917 42.6917 21.0941 43.2366 20.9234C43.6825 20.7771 44.1037 20.5332 44.4504 20.2162C44.7725 19.8991 45.045 19.5089 45.1936 19.0944C45.5405 18.1432 45.5405 17.119 45.1936 16.1678C45.045 15.7532 44.7725 15.363 44.4504 15.046C44.1037 14.7289 43.6825 14.4851 43.2366 14.3388C42.6917 14.168 42.1219 14.0948 41.5522 14.0948L39.1494 14.0461ZM55.5234 13.2413C55.8949 13.2413 56.2417 13.2901 56.6133 13.3632C56.9601 13.4364 57.2822 13.5583 57.5794 13.7047C57.8767 13.851 58.1491 14.0461 58.3969 14.2656C58.6446 14.4851 58.8427 14.7289 59.0162 14.9972L58.3969 15.4118C58.2482 15.1923 58.0748 14.9728 57.8767 14.8021C57.6785 14.6314 57.4555 14.4607 57.2078 14.3388C56.9601 14.2168 56.6877 14.1192 56.4151 14.0461C56.1179 13.973 55.8454 13.9486 55.5481 13.9486C55.0527 13.9486 54.5573 14.0461 54.1114 14.2168C53.6903 14.3875 53.2939 14.6314 52.9472 14.9484C52.6251 15.2655 52.3526 15.6801 52.1792 16.0946C51.8077 17.0458 51.8077 18.1188 52.1792 19.07C52.3526 19.5089 52.6251 19.8991 52.9472 20.2162C53.2691 20.5332 53.6655 20.7771 54.1114 20.9478C54.5573 21.1185 55.0527 21.216 55.5481 21.216C55.8454 21.216 56.1427 21.1917 56.4151 21.1185C56.6877 21.0454 56.9601 20.9722 57.2078 20.8258C57.4555 20.7039 57.6785 20.5575 57.8767 20.3625C58.0748 20.1918 58.2482 19.9722 58.3969 19.7528L59.0162 20.1918C58.8427 20.4601 58.6199 20.7039 58.3721 20.9234C58.1243 21.1429 57.8519 21.3136 57.5546 21.4599C57.2574 21.6063 56.9353 21.7282 56.5886 21.8014C55.6472 22.0208 54.6564 21.9476 53.7645 21.6063C53.2444 21.4111 52.7489 21.0941 52.3526 20.7039C51.9562 20.3137 51.6342 19.8504 51.4113 19.3382C50.9654 18.2164 50.9654 16.9482 51.4113 15.802C51.6342 15.2899 51.9315 14.8265 52.3526 14.4119C52.7489 14.0217 53.2444 13.7047 53.7645 13.5096C54.3095 13.3388 54.9041 13.2413 55.5234 13.2413ZM61.5924 17.1434C61.6915 16.9726 61.8401 16.8019 61.9887 16.6555C62.1374 16.5093 62.3108 16.4117 62.4841 16.3141C62.6576 16.2166 62.8558 16.1678 63.054 16.119C63.2521 16.0702 63.4503 16.0458 63.6485 16.0458C63.9952 16.0458 64.3173 16.0946 64.6393 16.2166C64.9366 16.3141 65.1843 16.4849 65.4073 16.6799C65.6301 16.8751 65.8036 17.1434 65.9027 17.4116C66.0265 17.7286 66.0761 18.0456 66.0761 18.3627V21.8745H65.3577V18.5578C65.3577 18.2895 65.3081 18.0212 65.2338 17.7774C65.1595 17.5579 65.0356 17.3628 64.8623 17.1921C64.6889 17.0214 64.4907 16.8994 64.2678 16.8263C64.02 16.7287 63.7475 16.7043 63.4751 16.7043C63.2025 16.7043 62.9549 16.7531 62.7071 16.8507C62.4841 16.9482 62.2613 17.0702 62.0878 17.2409C61.9144 17.4116 61.7658 17.6311 61.6667 17.8506C61.5676 18.0944 61.5181 18.3627 61.5181 18.6309V21.8989H60.7997V13.1194H61.5181L61.5924 17.1434ZM70.7331 16.0702C71.1047 16.0702 71.4763 16.1434 71.8231 16.2898C72.1451 16.4361 72.4424 16.6311 72.6901 16.8994C72.9378 17.1677 73.1359 17.4847 73.2598 17.8262C73.4085 18.192 73.4828 18.6065 73.4828 18.9968C73.4828 19.0456 73.4828 19.0944 73.4828 19.1431C73.4828 19.1919 73.4828 19.2406 73.4828 19.2894H68.578C68.6028 19.6065 68.6771 19.8991 68.8009 20.1674C68.9248 20.4113 69.0982 20.6307 69.2964 20.8258C69.4945 20.9966 69.7423 21.1429 69.9899 21.2404C70.2625 21.338 70.535 21.3867 70.8322 21.3867C71.2038 21.3867 71.5754 21.3136 71.9221 21.1673C72.2442 21.021 72.5414 20.8258 72.7892 20.5576L73.1607 21.0454C72.9874 21.2161 72.7892 21.3624 72.591 21.5087C72.4176 21.6307 72.2194 21.7282 71.9964 21.8014C71.7982 21.8745 71.6001 21.9233 71.3772 21.9476C71.179 21.972 70.9561 21.9964 70.7579 21.9964C70.3616 21.9964 69.9652 21.9233 69.5688 21.777C69.2221 21.6307 68.9 21.4355 68.6276 21.1673C68.355 20.899 68.1568 20.5819 68.0083 20.2162C67.8596 19.826 67.7853 19.4113 67.7853 18.9968C67.7853 18.5821 67.8596 18.192 68.0083 17.8018C68.1568 17.4603 68.355 17.1434 68.6276 16.8507C68.8752 16.5825 69.1973 16.3873 69.5441 16.241C69.9405 16.119 70.3368 16.0458 70.7331 16.0702ZM70.7331 16.6799C70.4607 16.6799 70.1881 16.7287 69.9157 16.8263C69.668 16.9238 69.445 17.0702 69.2716 17.2409C69.0734 17.4116 68.9248 17.6311 68.8257 17.875C68.7018 18.1188 68.6276 18.4115 68.6028 18.6797H72.7644C72.7396 18.3871 72.6653 18.1188 72.5662 17.875C72.4672 17.6311 72.3185 17.436 72.1203 17.2409C71.724 16.875 71.2285 16.6799 70.7331 16.6799ZM77.7683 16.0702C78.1893 16.0702 78.5857 16.1434 78.9821 16.2898C79.3536 16.4361 79.6757 16.6555 79.9234 16.9482L79.4775 17.4116C79.2546 17.1921 79.0068 17.0214 78.7095 16.8994C78.4123 16.7775 78.0902 16.7043 77.7683 16.7043C77.471 16.7043 77.149 16.7531 76.8764 16.8751C76.604 16.997 76.3562 17.1434 76.1581 17.3628C75.9599 17.5823 75.7865 17.8262 75.6874 18.0944C75.4645 18.6797 75.4645 19.3382 75.6874 19.9479C75.8856 20.5089 76.3315 20.9478 76.8764 21.1673C77.149 21.2892 77.471 21.338 77.7683 21.338C78.0902 21.338 78.4123 21.2648 78.7343 21.1429C79.0316 21.021 79.2794 20.8502 79.5022 20.6307L79.9482 21.1185C79.6757 21.4111 79.3536 21.6307 79.0068 21.777C78.6353 21.9233 78.2141 22.0208 77.793 21.9964C77.3719 21.9964 76.9755 21.9233 76.5792 21.777C75.8608 21.4843 75.2911 20.9234 75.0186 20.2162C74.7214 19.4601 74.7214 18.6309 75.0186 17.875C75.2911 17.1677 75.8608 16.6068 76.5792 16.3141C76.9508 16.1434 77.3472 16.0702 77.7683 16.0702ZM82.3015 18.5822H83.2428L85.6951 16.1678H86.5865L83.8125 18.8748L86.6368 21.8989H85.7445L83.2428 19.2163H82.3015V21.8989H81.5831V13.1194H82.2767L82.3015 18.5822ZM44.2771 10.3148V6.65669C44.2771 5.26659 43.3853 4.33982 41.9485 4.33982C41.1063 4.29104 40.3136 4.68129 39.8678 5.38854C39.4466 4.70569 38.7034 4.31543 37.9108 4.33982C37.2172 4.31543 36.5483 4.63251 36.1767 5.2178V4.48616H34.8887V10.3148H36.2015V7.07124C36.2015 6.04701 36.7713 5.5104 37.663 5.5104C38.5549 5.5104 38.9512 6.0714 38.9512 7.04685V10.2904H40.2641V7.07124C40.2641 6.04701 40.8586 5.5104 41.7256 5.5104C42.5926 5.5104 43.0384 6.0714 43.0384 7.04685V10.2904L44.2771 10.3148ZM63.5494 4.46177H61.4438V2.68151H60.1556V4.46177H58.9418V5.63236H60.1556V8.29061C60.1556 9.65632 60.6758 10.4611 62.2117 10.4611C62.7814 10.4611 63.3512 10.3148 63.8218 9.9978L63.4503 8.90029C63.1034 9.09542 62.7071 9.21738 62.3108 9.24177C61.6667 9.24177 61.4438 8.85151 61.4438 8.26622V5.63236H63.5494V4.46177ZM74.5727 4.31543C73.9286 4.29104 73.3341 4.63251 73.0121 5.16902V4.46177H71.724V10.2904H73.0121V7.04685C73.0121 6.0714 73.4332 5.53479 74.2755 5.53479C74.5479 5.53479 74.8205 5.58357 75.0929 5.68114L75.4893 4.48616C75.192 4.3886 74.87 4.33982 74.5727 4.31543ZM57.9262 4.9495C57.2078 4.51056 56.3656 4.31543 55.4986 4.33982C53.9875 4.33982 53.0215 5.04707 53.0215 6.21765C53.0215 7.16881 53.7398 7.7541 55.0774 7.94923L55.6967 8.04679C56.4151 8.14426 56.7372 8.315 56.7372 8.65648C56.7372 9.11981 56.2665 9.36372 55.3748 9.36372C54.6564 9.38812 53.9627 9.1686 53.393 8.75395L52.7737 9.75389C53.5169 10.266 54.4334 10.5343 55.35 10.5099C57.0592 10.5099 58.0501 9.7051 58.0501 8.60769C58.0501 7.58336 57.2574 7.04685 55.9693 6.85172L55.35 6.75425C54.7802 6.68108 54.3343 6.55912 54.3343 6.16887C54.3343 5.72992 54.7555 5.48601 55.4739 5.48601C56.1179 5.48601 56.762 5.65675 57.3317 5.97383L57.9262 4.9495ZM92.4823 4.33982C91.8387 4.31543 91.2444 4.6569 90.9217 5.19341V4.48616H89.6336V10.3148H90.9217V7.04685C90.9217 6.0714 91.3432 5.53479 92.1851 5.53479C92.4576 5.53479 92.73 5.58357 93.0024 5.68114L93.3992 4.48616C93.1268 4.3886 92.805 4.33982 92.4823 4.33982ZM75.8608 7.38833C75.8608 9.1686 77.1242 10.4611 79.0316 10.4611C79.7995 10.5099 80.5674 10.2416 81.162 9.75389L80.5427 8.72965C80.0968 9.07103 79.5518 9.24177 78.9821 9.24177C77.9417 9.24177 77.1985 8.48574 77.1985 7.36394C77.1985 6.24204 77.9665 5.5104 78.9821 5.48601C79.5518 5.48601 80.0968 5.68114 80.5427 5.99822L81.162 4.97389C80.5674 4.48616 79.7995 4.24225 79.0316 4.26664C77.0994 4.31543 75.8608 5.60797 75.8608 7.38833ZM87.9496 7.38833V4.46177H86.6615V5.16902C86.2153 4.60812 85.5218 4.29104 84.7786 4.31543C83.1189 4.31543 81.8061 5.60797 81.8061 7.38833C81.8061 9.1686 83.1189 10.4611 84.7786 10.4611C85.497 10.4855 86.2153 10.1684 86.6615 9.60754V10.3148H87.9496V7.38833ZM83.1437 7.38833C83.1437 6.364 83.8373 5.5104 84.9521 5.5104C86.0169 5.5104 86.7355 6.31521 86.7355 7.38833C86.7355 8.46135 86.0169 9.26616 84.9521 9.26616C83.8373 9.26616 83.1437 8.41257 83.1437 7.38833ZM67.5871 4.31543C65.8531 4.31543 64.6393 5.55918 64.6393 7.38833C64.6393 9.24177 65.9027 10.4611 67.6862 10.4611C68.578 10.4855 69.445 10.1928 70.1138 9.63193L69.4945 8.68087C68.9991 9.07103 68.3798 9.29055 67.7605 9.29055C66.9183 9.29055 66.1752 8.92468 65.977 7.85167H70.3863C70.3863 7.70532 70.4111 7.53458 70.4111 7.36394C70.3863 5.58358 69.2469 4.31543 67.5871 4.31543ZM67.5623 5.46162C68.4046 5.46162 68.9248 5.97383 69.0734 6.87611H65.977C66.1009 6.04701 66.6211 5.46162 67.5623 5.46162ZM99.9386 7.38833V2.12061H98.6505V5.16902C98.2053 4.60812 97.5114 4.29104 96.7681 4.31543C95.1088 4.31543 93.7951 5.60797 93.7951 7.38833C93.7951 9.1686 95.1088 10.4611 96.7681 10.4611C97.4867 10.4855 98.2053 10.1684 98.6505 9.60754V10.3148H99.9386V7.38833ZM101.45 9.77828C101.499 9.77828 101.549 9.77828 101.599 9.80267C101.648 9.82706 101.673 9.85145 101.722 9.87584C101.747 9.90023 101.796 9.94902 101.796 9.9978C101.847 10.0953 101.847 10.1928 101.796 10.2904C101.772 10.3392 101.747 10.3636 101.722 10.4124C101.698 10.4367 101.648 10.4855 101.599 10.4855C101.549 10.5099 101.499 10.5099 101.45 10.5099C101.302 10.5099 101.153 10.4124 101.103 10.2904C101.054 10.1928 101.054 10.0953 101.103 9.9978C101.153 9.90024 101.227 9.82706 101.302 9.80267C101.326 9.77828 101.376 9.77828 101.45 9.77828ZM101.45 10.4367C101.499 10.4367 101.524 10.4367 101.574 10.4124C101.599 10.388 101.648 10.388 101.673 10.3392C101.796 10.2172 101.796 10.0465 101.673 9.92462C101.648 9.90023 101.624 9.87584 101.574 9.85145C101.549 9.82706 101.499 9.82706 101.45 9.82706C101.4 9.82706 101.376 9.82706 101.326 9.85145C101.177 9.92463 101.103 10.0953 101.177 10.2416C101.202 10.266 101.202 10.3148 101.227 10.3392C101.251 10.3636 101.276 10.388 101.326 10.4124C101.351 10.4124 101.4 10.4367 101.45 10.4367ZM101.474 9.97341C101.499 9.97341 101.549 9.97341 101.574 9.9978C101.599 10.0222 101.624 10.0466 101.624 10.0709C101.624 10.0953 101.624 10.1197 101.599 10.1441C101.574 10.1684 101.549 10.1684 101.524 10.1684L101.648 10.2904H101.549L101.45 10.1684H101.425V10.2904H101.351V9.94902H101.474V9.97341ZM101.376 10.0222V10.1197H101.45C101.474 10.1197 101.474 10.1197 101.499 10.1197L101.524 10.0953C101.524 10.0709 101.524 10.0709 101.499 10.0709C101.474 10.0709 101.474 10.0709 101.45 10.0709L101.376 10.0222ZM95.1335 7.38833C95.1335 6.364 95.8265 5.5104 96.9418 5.5104C98.0069 5.5104 98.7255 6.31521 98.7255 7.38833C98.7255 8.46135 98.0069 9.26616 96.9418 9.26616C95.8265 9.26616 95.1335 8.41257 95.1335 7.38833ZM51.5599 7.38833V4.46177H50.247V5.16902C49.8012 4.60812 49.1075 4.29104 48.3644 4.31543C46.7047 4.31543 45.3918 5.60797 45.3918 7.38833C45.3918 9.1686 46.7047 10.4611 48.3644 10.4611C49.0828 10.4855 49.8012 10.1684 50.247 9.60754V10.3148H51.5351L51.5599 7.38833ZM46.7543 7.38833C46.7543 6.364 47.4478 5.5104 48.5626 5.5104C49.6277 5.5104 50.3461 6.31521 50.3461 7.38833C50.3461 8.46135 49.6277 9.26616 48.5626 9.26616C47.4231 9.24177 46.7543 8.41257 46.7543 7.38833ZM87.5281 21.5819H87.4047V21.8745H87.3544V21.5819H87.231V21.5331H87.5035V21.5819H87.5281ZM87.9743 21.8745H87.9002V21.6063L87.8006 21.8502H87.7512L87.6525 21.6063V21.8745H87.6022V21.5331H87.6772L87.7759 21.777L87.8746 21.5331H87.9496L87.9743 21.8745Z" fill="white"/>
<path d="M18.4154 1.88184H10.6123V15.6852H18.4154V1.88184Z" fill="#FF5F00"/>
<path d="M11.1084 8.78335C11.1084 6.10081 12.3718 3.54002 14.5269 1.88171C10.6378 -1.11797 5.0394 -0.459502 1.99251 3.34499C-1.05443 7.14944 -0.385595 12.6854 3.50352 15.6607C6.74861 18.1726 11.2818 18.1726 14.5269 15.6607C12.3718 14.0267 11.1084 11.466 11.1084 8.78335Z" fill="#EB001B"/>
<path d="M28.0767 14.2222V13.9296H28.2006V13.8809H27.9033V13.9296H28.0272V14.2222H28.0767ZM28.6465 14.2222V13.8809H28.5722L28.4731 14.1247L28.374 13.8809H28.2749V14.2222H28.3493V13.9784L28.4483 14.1978H28.5226L28.6217 13.9784V14.2466L28.6465 14.2222Z" fill="#F79E1B"/>
<path d="M28.9434 8.78355C28.9434 13.6366 24.9553 17.563 20.0256 17.563C18.0192 17.563 16.087 16.9046 14.5264 15.6852C18.3908 12.6856 19.0596 7.17392 16.0375 3.36948C15.5916 2.80858 15.0961 2.32085 14.5264 1.88181C18.3908 -1.11784 24.0139 -0.459377 27.0608 3.36948C28.2746 4.90593 28.9434 6.80815 28.9434 8.78355Z" fill="#F79E1B"/>
</svg>
