<svg width="66" height="24" viewBox="0 0 66 24" fill="none" xmlns="http://www.w3.org/2000/svg">
<path fill-rule="evenodd" clip-rule="evenodd" d="M61.8557 24H0.916992L4.97861 0H65.917L61.8557 24Z" fill="white"/>
<path fill-rule="evenodd" clip-rule="evenodd" d="M20.1207 13.824C19.0802 13.824 18.3493 13.1516 18.3493 12.1019C18.3493 10.9401 19.2579 9.84978 20.5636 9.84978C21.604 9.84978 22.3349 10.5529 22.3349 11.6028C22.3349 12.7647 21.4263 13.824 20.1207 13.824ZM20.7298 7.84229C17.9953 7.84229 15.9258 9.82945 15.9258 12.2038C15.9258 14.354 17.6299 15.8423 19.9545 15.8423C22.689 15.8423 24.7584 13.7934 24.7584 11.4191C24.7584 9.26909 23.0544 7.84229 20.7298 7.84229Z" fill="#2E3235"/>
<path fill-rule="evenodd" clip-rule="evenodd" d="M36.5982 13.824C35.5577 13.824 34.8283 13.1516 34.8283 12.1019C34.8283 10.9401 35.7354 9.84978 37.0411 9.84978C38.0816 9.84978 38.8125 10.5529 38.8125 11.6028C38.8125 12.7647 37.9053 13.824 36.5982 13.824ZM37.2073 7.84229C34.4728 7.84229 32.4033 9.82945 32.4033 12.2038C32.4033 14.354 34.1074 15.8423 36.432 15.8423C39.1665 15.8423 41.2374 13.7934 41.2374 11.4191C41.2374 9.26909 39.5319 7.84229 37.2073 7.84229Z" fill="#2E3235"/>
<path fill-rule="evenodd" clip-rule="evenodd" d="M45.3911 11.6316H45.0343L45.3023 10.0295H45.6262C46.3843 10.0295 46.7856 10.2555 46.7856 10.7483C46.7856 11.3337 46.2166 11.6316 45.3911 11.6316ZM49.2836 10.3684C49.2836 8.93065 48.1471 8.00635 46.0948 8.00635H43.1941L41.9229 15.6779H44.365L44.7662 13.2644H44.8781L46.1722 15.6779H48.9712L47.1754 12.9973C48.4925 12.5453 49.2836 11.57 49.2836 10.3684Z" fill="#2E3235"/>
<path fill-rule="evenodd" clip-rule="evenodd" d="M13.1292 11.0668C12.2034 10.6046 11.9927 10.4814 11.9927 10.235C11.9927 9.92681 12.3596 9.77268 12.8727 9.77268C13.4618 9.77268 14.3518 9.83789 15.2231 10.6587C15.4395 10.001 15.7906 9.40217 16.2507 8.88639C15.0153 8.20074 13.8774 7.84229 12.8283 7.84229C10.743 7.84229 9.54921 8.94116 9.54921 10.2658C9.54921 11.4056 10.4191 12.0013 11.4567 12.5248C12.3826 12.9973 12.6162 13.1413 12.6162 13.429C12.6162 13.7371 12.2264 13.9113 11.7133 13.9113C10.8204 13.9113 9.78279 13.3569 9.16937 12.7921L8.8125 14.9282C9.44887 15.3798 10.3632 15.8417 11.7462 15.8417C13.8989 15.8417 15.0597 14.7742 15.0597 13.3981C15.0597 12.2784 14.3116 11.6625 13.1292 11.0668Z" fill="#2E3235"/>
<path fill-rule="evenodd" clip-rule="evenodd" d="M31.1864 11.3746H28.3272L28.5508 10.0295H31.6178C32.0148 9.22033 32.6296 8.52834 33.3964 8.00635H28.3774C27.2638 8.00635 26.3179 8.7548 26.1502 9.76783L25.1699 15.6779H27.6135L28.0148 13.2644H30.9155L31.1248 11.9528C31.1348 11.7567 31.1549 11.5641 31.1864 11.3746Z" fill="#2E3235"/>
<path fill-rule="evenodd" clip-rule="evenodd" d="M49.3389 8.00635C49.991 8.50053 50.3937 9.19143 50.4797 10.0295H52.522L51.5846 15.6779H54.0268L54.9655 10.0295H57.2285L57.5639 8.00635H49.3389Z" fill="#2E3235"/>
</svg>
