<svg width="40" height="40" viewBox="0 0 40 40" fill="none" xmlns="http://www.w3.org/2000/svg">
<g clip-path="url(#clip0_3131_12099)">
<path d="M40.0634 0.0258789H0.0654297V40.0239H40.0634V0.0258789Z" fill="white"/>
<path d="M39.1826 20.0259H0.948242V39.1431H39.1826V20.0259Z" fill="#1A1F71"/>
<path d="M15.8771 5.61816L12.1135 14.6H9.65693L7.80441 7.4323C7.69127 6.9919 7.5943 6.83028 7.25289 6.6424C6.69329 6.33937 5.77208 6.05452 4.95996 5.87877L5.01451 5.61816H8.96804C9.47107 5.61816 9.92562 5.95351 10.0408 6.53331L11.0185 11.7313L13.4367 5.61816H15.8771ZM25.5014 11.6687C25.5115 9.29897 22.2246 9.16765 22.2468 8.10705C22.2549 7.78584 22.56 7.4424 23.2327 7.35553C23.566 7.31311 24.4832 7.27877 25.5236 7.75755L25.9297 5.8525C25.3701 5.65048 24.6509 5.45654 23.7559 5.45654C21.4589 5.45654 19.8428 6.67674 19.8307 8.42624C19.8165 9.71917 20.9842 10.4404 21.863 10.8707C22.7701 11.3111 23.0731 11.5939 23.069 11.9858C23.063 12.5879 22.3458 12.8545 21.6791 12.8646C20.5095 12.8828 19.8327 12.5495 19.2933 12.2969L18.8711 14.2666C19.4145 14.5151 20.4165 14.7313 21.4549 14.7434C23.8973 14.7414 25.4933 13.5353 25.5014 11.6687ZM31.568 14.6H33.7175L31.8408 5.61816H29.8589C29.4125 5.61816 29.0367 5.87674 28.869 6.27674L25.3822 14.6H27.8226L28.3074 13.2586H31.2872L31.568 14.6ZM28.9741 11.4182L30.1983 8.04442L30.9014 11.4182H28.9741ZM19.1983 5.61816L17.2771 14.6H14.9539L16.8751 5.61816H19.1983Z" fill="#1A1F71"/>
<path d="M9.38332 31.1029C9.64595 31.2584 10.0561 31.3918 10.4803 31.3918C11.0055 31.3918 11.3005 31.1433 11.3005 30.7736C11.3005 30.4301 11.0722 30.2281 10.5005 30.02C9.74696 29.7574 9.26817 29.3534 9.26817 28.7069C9.26817 27.9594 9.88636 27.4019 10.8763 27.4019C11.3672 27.4019 11.7247 27.5089 11.9591 27.6241L11.7631 28.2968C11.5954 28.2099 11.2783 28.0806 10.854 28.0806C10.3288 28.0806 10.1066 28.3574 10.1066 28.6261C10.1066 28.9756 10.3692 29.1372 10.9752 29.3655C11.7631 29.6685 12.1389 30.0645 12.1389 30.7109C12.1389 31.4443 11.5874 32.0705 10.4237 32.0705C9.93888 32.0705 9.44191 31.9352 9.19141 31.7877L9.38332 31.1029Z" fill="white"/>
<path d="M15.3596 29.992H13.6505V31.3253H15.5616V32.0041H12.8242V27.4688H15.4626V28.1475H13.6525V29.3193H15.3616V29.992H15.3596Z" fill="white"/>
<path d="M19.4724 31.8685C19.2765 31.9635 18.8462 32.0705 18.2946 32.0705C16.8542 32.0705 15.9795 31.1695 15.9795 29.7897C15.9795 28.2968 17.0219 27.4019 18.4078 27.4019C18.9532 27.4019 19.3371 27.5089 19.5047 27.5978L19.329 28.2564C19.1128 28.1615 18.8118 28.0806 18.4401 28.0806C17.5189 28.0806 16.8522 28.6604 16.8522 29.7493C16.8522 30.7453 17.43 31.3776 18.434 31.3776C18.7633 31.3776 19.1128 31.3109 19.335 31.216L19.4724 31.8685Z" fill="white"/>
<path d="M20.9327 27.4683V30.1128C20.9327 31.0017 21.3024 31.4118 21.862 31.4118C22.46 31.4118 22.8176 31.0017 22.8176 30.1128V27.4683H23.6458V30.0582C23.6458 31.4582 22.9266 32.0764 21.8357 32.0764C20.7852 32.0764 20.1064 31.4906 20.1064 30.0643V27.4663H20.9327V27.4683Z" fill="white"/>
<path d="M24.5264 27.5351C24.8415 27.4745 25.3001 27.4341 25.7789 27.4341C26.4314 27.4341 26.8698 27.5412 27.1789 27.7977C27.4274 28.0058 27.5688 28.323 27.5688 28.7129C27.5688 29.2987 27.1728 29.6947 26.7405 29.8442V29.8644C27.0698 29.9856 27.2658 30.3007 27.3728 30.7391C27.5203 31.3048 27.6415 31.83 27.7304 32.0038H26.8819C26.8153 31.8684 26.7001 31.4987 26.5789 30.9331C26.4435 30.3412 26.2355 30.1533 25.7648 30.1391H25.3466V32.0038H24.5264V27.5351ZM25.3486 29.5351H25.8395C26.3991 29.5351 26.7405 29.2381 26.7405 28.7876C26.7405 28.2967 26.3971 28.0603 25.8597 28.0603C25.5971 28.0603 25.4294 28.0805 25.3486 28.1007V29.5351Z" fill="white"/>
<path d="M30.8255 29.992H29.1164V31.3253H31.0275V32.0041H28.2881V27.4688H30.9265V28.1475H29.1164V29.3193H30.8255V29.992Z" fill="white"/>
</g>
<defs>
<clipPath id="clip0_3131_12099">
<rect width="40" height="40" fill="white"/>
</clipPath>
</defs>
</svg>
