<svg width="46" height="30" viewBox="0 0 46 30" fill="none" xmlns="http://www.w3.org/2000/svg">
<path d="M0 5C0 2.23858 2.23858 0 5 0H41C43.7614 0 46 2.23858 46 5V25C46 27.7614 43.7614 30 41 30H5C2.23857 30 0 27.7614 0 25V5Z" fill="#20032F"/>
<path d="M12.2124 9.80495C11.814 10.2778 11.1764 10.6508 10.5388 10.5975C10.4591 9.95813 10.7713 9.27878 11.1365 8.85918C11.535 8.37298 12.2324 8.02664 12.7969 8C12.8633 8.66603 12.6043 9.31874 12.2124 9.80495ZM12.7902 10.7241C11.8671 10.6708 11.0768 11.2502 10.6384 11.2502C10.1935 11.2502 9.52268 10.7507 8.79213 10.764C7.84241 10.7774 6.95911 11.3168 6.47428 12.176C5.47808 13.8944 6.21527 16.4386 7.17827 17.8373C7.64981 18.53 8.21433 19.2892 8.95816 19.2626C9.66215 19.236 9.94109 18.803 10.7912 18.803C11.6479 18.803 11.8937 19.2626 12.6375 19.2493C13.4079 19.236 13.8927 18.5566 14.3643 17.8639C14.9022 17.078 15.1214 16.3121 15.1347 16.2721C15.1214 16.2588 13.647 15.6927 13.6337 13.9876C13.6204 12.5623 14.7959 11.883 14.8491 11.843C14.1849 10.8573 13.1489 10.7507 12.7902 10.7241ZM18.1233 8.79258V19.176H19.7305V15.6261H21.9554C23.9876 15.6261 25.4155 14.2274 25.4155 12.2027C25.4155 10.1779 24.0142 8.79258 22.0085 8.79258H18.1233ZM19.7305 10.1513H21.5834C22.9781 10.1513 23.7751 10.8972 23.7751 12.2093C23.7751 13.5214 22.9781 14.274 21.5768 14.274H19.7305V10.1513ZM28.351 19.2559C29.3605 19.2559 30.2969 18.7431 30.722 17.9305H30.7552V19.176H32.2429V14.0076C32.2429 12.509 31.0474 11.5433 29.2077 11.5433C27.5009 11.5433 26.239 12.5224 26.1926 13.8677H27.6404C27.7599 13.2284 28.351 12.8088 29.1613 12.8088C30.1442 12.8088 30.6954 13.2683 30.6954 14.1142V14.687L28.6897 14.8068C26.8235 14.9201 25.814 15.686 25.814 17.0181C25.814 18.3635 26.8567 19.2559 28.351 19.2559ZM28.7827 18.0238C27.926 18.0238 27.3814 17.6108 27.3814 16.9781C27.3814 16.3254 27.906 15.9458 28.9089 15.8858L30.6954 15.7726V16.3587C30.6954 17.3311 29.8719 18.0238 28.7827 18.0238ZM34.2286 22C35.796 22 36.5332 21.4006 37.1774 19.5823L40 11.6432H38.3662L36.4734 17.7774H36.4402L34.5474 11.6432H32.8672L35.5901 19.2027L35.444 19.6622C35.1983 20.4415 34.7998 20.7412 34.0892 20.7412C33.963 20.7412 33.7172 20.7279 33.6176 20.7146V21.96C33.7106 21.9867 34.1091 22 34.2286 22Z" fill="white"/>
</svg>
