<svg width="45" height="30" viewBox="0 0 45 30" fill="none" xmlns="http://www.w3.org/2000/svg">
<path d="M0 5C0 2.23858 2.23858 0 5 0H40C42.7614 0 45 2.23858 45 5V25C45 27.7614 42.7614 30 40 30H5C2.23858 30 0 27.7614 0 25V5Z" fill="#20032F"/>
<path fill-rule="evenodd" clip-rule="evenodd" d="M22.5 21.0889C21.1761 22.2806 19.4586 23 17.582 23C13.3946 23 10 19.4183 10 15C10 10.5817 13.3946 7 17.582 7C19.4586 7 21.1761 7.7194 22.5 8.91112C23.824 7.7194 25.5414 7 27.4181 7C31.6054 7 35 10.5817 35 15C35 19.4183 31.6054 23 27.4181 23C25.5414 23 23.824 22.2806 22.5 21.0889Z" fill="#ED0006"/>
<path fill-rule="evenodd" clip-rule="evenodd" d="M22 21.0889C23.6954 19.6216 24.7705 17.4382 24.7705 15C24.7705 12.5618 23.6954 10.3784 22 8.91112C23.377 7.7194 25.163 7 27.1148 7C31.4697 7 35 10.5817 35 15C35 19.4183 31.4697 23 27.1148 23C25.163 23 23.377 22.2806 22 21.0889Z" fill="#F9A000"/>
<path fill-rule="evenodd" clip-rule="evenodd" d="M22 9C23.8359 10.4459 25 12.5974 25 15C25 17.4026 23.8359 19.5541 22 21C20.1641 19.5541 19 17.4026 19 15C19 12.5974 20.1641 10.4459 22 9Z" fill="#FF5E00"/>
</svg>
