<svg width="48" height="30" viewBox="0 0 48 30" fill="none" xmlns="http://www.w3.org/2000/svg">
<path d="M0 5.25C0 2.35051 2.35051 0 5.25 0H42.75C45.6495 0 48 2.35051 48 5.25V24.75C48 27.6495 45.6495 30 42.75 30H5.25C2.35051 30 0 27.6495 0 24.75V5.25Z" fill="#20032F"/>
<path d="M13.9984 13.1902H11.5352C11.5352 12.7793 11.4876 12.5036 11.393 12.3632C11.2464 12.1556 10.8419 12.0515 10.1798 12.0515C9.53663 12.0515 9.11036 12.1113 8.90238 12.231C8.6944 12.3513 8.59017 12.6124 8.59017 13.0145C8.59017 13.3785 8.68245 13.6185 8.86725 13.7332C8.99958 13.8149 9.17453 13.8627 9.39235 13.877L9.88912 13.9127C10.9539 13.9844 11.6188 14.0351 11.8839 14.0639C12.7259 14.1501 13.3363 14.3777 13.715 14.7464C14.0129 15.0342 14.1907 15.4104 14.2474 15.8746C14.2806 16.1524 14.297 16.4669 14.297 16.8161C14.297 17.6213 14.2214 18.2107 14.0703 18.5843C13.796 19.2699 13.1798 19.7029 12.2212 19.8848C11.8195 19.9617 11.2052 20 10.3786 20C8.99911 20 8.03789 19.9167 7.49499 19.7489C6.82888 19.5434 6.3895 19.127 6.17707 18.5002C6.05855 18.1512 6 17.5699 6 16.7562H8.46323C8.46323 16.8469 8.46346 16.9164 8.46346 16.9642C8.46346 17.3985 8.58619 17.6775 8.83141 17.802C9.00122 17.8877 9.20615 17.9327 9.44716 17.9381H10.3529C10.815 17.9381 11.1098 17.9141 11.237 17.8658C11.4635 17.7753 11.6122 17.6296 11.6832 17.428C11.7209 17.3037 11.7396 17.1432 11.7396 16.9466C11.7396 16.5064 11.5815 16.2386 11.2658 16.1424C11.1476 16.1046 10.5986 16.0515 9.61813 15.9846C8.83071 15.9275 8.28382 15.8725 7.9777 15.8191C7.1713 15.6658 6.63378 15.3504 6.36561 14.8716C6.12975 14.465 6.01194 13.8496 6.01194 13.0262C6.01194 12.3993 6.07565 11.8966 6.20306 11.5185C6.33048 11.1402 6.53588 10.8531 6.81928 10.6567C7.23454 10.3551 7.76597 10.1782 8.41264 10.1254C8.95086 10.0775 9.54787 10.0532 10.2046 10.0532C11.2384 10.0532 11.9753 10.1137 12.4144 10.2334C13.4864 10.5263 14.0223 11.3461 14.0223 12.6936C14.0223 12.8041 14.0143 12.9693 13.9984 13.1902Z" fill="white"/>
<path d="M24.8301 20.0001V10.0005H28.6892H29.2949H29.7631C30.4397 10.0005 30.9559 10.0564 31.3108 10.1688C32.1221 10.4271 32.6664 10.9563 32.9454 11.7557C33.0892 12.1754 33.1613 12.8073 33.1613 13.651C33.1613 14.6654 33.0814 15.3941 32.9233 15.8381C32.6069 16.7156 31.9558 17.2212 30.9723 17.3521C30.8566 17.3719 30.3645 17.3893 29.4959 17.4036L29.0565 17.4183H27.4779V20.0001H24.8301ZM27.4779 15.0986H29.1284C29.6518 15.0796 29.9701 15.0386 30.0847 14.9746C30.2411 14.8872 30.3463 14.712 30.3985 14.4494C30.432 14.2747 30.4486 14.0147 30.4486 13.6695C30.4486 13.2465 30.4154 12.933 30.3486 12.7282C30.2535 12.4414 30.0254 12.2669 29.6643 12.2033C29.5926 12.1938 29.4216 12.1885 29.1506 12.1885H27.4779V15.0986Z" fill="white"/>
<path d="M38.8128 18.2715H35.2727L34.797 19.9996H32.0576L35.0136 10H39.0077L41.9998 19.9996H39.318L38.8128 18.2715ZM38.287 16.3235L37.0464 11.9888L35.8425 16.3235H38.287Z" fill="white"/>
<path d="M21.1758 11.4068C22.2677 11.4068 23.2425 11.9182 23.8831 12.719L24.4539 11.4751C23.5613 10.6176 22.3464 10.0889 21.0065 10.0889C18.9201 10.0889 17.1354 11.3697 16.403 13.1827H15.29L14.6328 14.6147H16.0646C16.0538 14.7475 16.0468 14.8804 16.0468 15.0161C16.0468 15.1801 16.0552 15.3425 16.0711 15.5027H15.3516L14.6946 16.9351H16.4372C17.1904 18.7023 18.9529 19.9428 21.0065 19.9428C22.0415 19.9428 23.0017 19.6276 23.7969 19.0891V17.3336C23.1566 18.0747 22.2199 18.543 21.1758 18.543C19.9553 18.543 18.8817 17.9033 18.2566 16.9351H21.9052L22.5624 15.5027H17.7198C17.6947 15.3303 17.6813 15.1542 17.6813 14.9747C17.6813 14.8532 17.6874 14.7333 17.6991 14.6147H22.9697L23.6266 13.1827H18.1547C18.7599 12.1212 19.886 11.4068 21.1758 11.4068Z" fill="#FFBE00"/>
</svg>
