<svg width="72" height="30" viewBox="0 0 72 30" fill="none" xmlns="http://www.w3.org/2000/svg">
<path d="M0 5.25C0 2.35051 2.35051 0 5.25 0H66.75C69.6495 0 72 2.35051 72 5.25V24.75C72 27.6495 69.6495 30 66.75 30H5.25C2.35051 30 0 27.6495 0 24.75V5.25Z" fill="#20032F"/>
<path fill-rule="evenodd" clip-rule="evenodd" d="M19.9207 17.4771C18.6401 17.4771 17.7406 16.6366 17.7406 15.3245C17.7406 13.8723 18.8588 12.5094 20.4658 12.5094C21.7463 12.5094 22.6459 13.3883 22.6459 14.7006C22.6459 16.153 21.5276 17.4771 19.9207 17.4771ZM20.6704 10C17.3049 10 14.7578 12.4839 14.7578 15.4518C14.7578 18.1396 16.8551 20 19.7161 20C23.0816 20 25.6286 17.4388 25.6286 14.471C25.6286 11.7835 23.5314 10 20.6704 10Z" fill="white"/>
<path fill-rule="evenodd" clip-rule="evenodd" d="M40.2 17.4771C38.9194 17.4771 38.0216 16.6366 38.0216 15.3245C38.0216 13.8723 39.1381 12.5094 40.7451 12.5094C42.0257 12.5094 42.9252 13.3883 42.9252 14.7006C42.9252 16.153 41.8087 17.4771 40.2 17.4771ZM40.9497 10C37.5842 10 35.0371 12.4839 35.0371 15.4518C35.0371 18.1396 37.1344 20 39.9954 20C43.3609 20 45.9097 17.4388 45.9097 14.471C45.9097 11.7835 43.8107 10 40.9497 10Z" fill="white"/>
<path fill-rule="evenodd" clip-rule="evenodd" d="M51.0215 14.7367H50.5823L50.9122 12.734H51.3108C52.2439 12.734 52.7378 13.0165 52.7378 13.6325C52.7378 14.3643 52.0375 14.7367 51.0215 14.7367ZM55.8122 13.1577C55.8122 11.3604 54.4134 10.2051 51.8876 10.2051H48.3175L46.7529 19.7944H49.7586L50.2524 16.7777H50.3901L51.9828 19.7944H55.4277L53.2175 16.4438C54.8385 15.8788 55.8122 14.6596 55.8122 13.1577Z" fill="white"/>
<path fill-rule="evenodd" clip-rule="evenodd" d="M11.3128 14.0307C10.1734 13.4528 9.91407 13.2988 9.91407 12.9909C9.91407 12.6056 10.3656 12.413 10.9971 12.413C11.7221 12.413 12.8175 12.4945 13.8899 13.5205C14.1562 12.6984 14.5883 11.9498 15.1546 11.3051C13.6341 10.4481 12.2336 10 10.9425 10C8.37597 10 6.9067 11.3736 6.9067 13.0293C6.9067 14.4541 7.97733 15.1987 9.25442 15.8531C10.3939 16.4438 10.6814 16.6237 10.6814 16.9834C10.6814 17.3684 10.2016 17.5863 9.57015 17.5863C8.4712 17.5863 7.19419 16.8933 6.43922 16.1872L6 18.8573C6.78322 19.4218 7.90856 19.9992 9.61067 19.9992C12.2601 19.9992 13.6888 18.6649 13.6888 16.9448C13.6888 15.5451 12.7681 14.7752 11.3128 14.0307Z" fill="white"/>
<path fill-rule="evenodd" clip-rule="evenodd" d="M33.5366 14.4154H30.0177L30.2929 12.734H34.0675C34.5562 11.7225 35.3129 10.8576 36.2566 10.2051H30.0794C28.7089 10.2051 27.5447 11.1406 27.3384 12.4069L26.1318 19.7944H29.1393L29.6331 16.7777H33.2032L33.4608 15.1381C33.4731 14.893 33.4978 14.6522 33.5366 14.4154Z" fill="white"/>
<path fill-rule="evenodd" clip-rule="evenodd" d="M55.877 10.2051C56.6795 10.8228 57.1752 11.6864 57.281 12.734H59.7945L58.6409 19.7944H61.6466L62.802 12.734H65.5871L65.9999 10.2051H55.877Z" fill="white"/>
</svg>
