<svg width="45" height="30" viewBox="0 0 45 30" fill="none" xmlns="http://www.w3.org/2000/svg">
<path d="M0 5C0 2.23858 2.23858 0 5 0H40C42.7614 0 45 2.23858 45 5V25C45 27.7614 42.7614 30 40 30H5C2.23858 30 0 27.7614 0 25V5Z" fill="#20032F"/>
<path d="M17.5424 19.8858L19.2203 10.1981H21.9042L20.225 19.8858H17.5424ZM29.9214 10.4069C29.3898 10.2106 28.5565 10 27.5161 10C24.864 10 22.9961 11.314 22.9801 13.1971C22.9652 14.5892 24.3138 15.3658 25.3317 15.8291C26.3765 16.3041 26.7276 16.6069 26.7226 17.0308C26.7159 17.6803 25.8883 17.9768 25.1169 17.9768C24.0427 17.9768 23.4721 17.83 22.5906 17.4684L22.2447 17.3144L21.8681 19.4831C22.495 19.7536 23.6541 19.9878 24.8577 20C27.679 20 29.5104 18.701 29.5313 16.69C29.5413 15.5879 28.8263 14.7493 27.2778 14.0579C26.3398 13.6097 25.7653 13.3106 25.7714 12.8568C25.7714 12.4541 26.2576 12.0236 27.3085 12.0236C28.186 12.0101 28.8219 12.1984 29.3172 12.3947L29.5577 12.5065L29.9214 10.4069ZM36.8279 10.1979H34.7541C34.1116 10.1979 33.6308 10.3704 33.3487 11.0013L29.3628 19.8794H32.1811C32.1811 19.8794 32.6418 18.6857 32.746 18.4236C33.054 18.4236 35.7918 18.4277 36.1832 18.4277C36.2635 18.7669 36.5097 19.8794 36.5097 19.8794H39.0001L36.8279 10.1976V10.1979ZM33.5375 16.4537C33.7595 15.8955 34.6068 13.7455 34.6068 13.7455C34.591 13.7713 34.8272 13.1846 34.9626 12.8209L35.144 13.6561C35.144 13.6561 35.6579 15.9686 35.7654 16.4535H33.5375V16.4537ZM15.2641 10.1979L12.6365 16.8045L12.3566 15.462C11.8674 13.9143 10.3434 12.2375 8.63965 11.398L11.0423 19.8703L13.8819 19.8672L18.1071 10.1978L15.2641 10.1978" fill="white"/>
<path d="M10.4158 10.625H6.03473L6 10.8162C9.40846 11.577 11.6637 13.4156 12.6001 15.625L11.6475 11.4012C11.483 10.8192 11.006 10.6455 10.4159 10.6252" fill="#F2AE14"/>
</svg>
