<svg width="30" height="30" viewBox="0 0 30 30" fill="none" xmlns="http://www.w3.org/2000/svg">
<path d="M15.0001 2.49902C21.9126 2.49902 27.5001 8.10027 27.5001 14.999C27.5001 21.9003 21.9126 27.499 15.0001 27.499C8.10013 27.499 2.50013 21.9003 2.50013 14.999C2.50013 8.10027 8.10013 2.49902 15.0001 2.49902ZM15.0001 18.6628C14.4001 18.6628 13.9126 19.1503 13.9126 19.7503C13.9126 20.3503 14.4001 20.8503 15.0126 20.8503C15.6126 20.8503 16.1001 20.3503 16.1001 19.7503C16.1001 19.1503 15.6126 18.6628 15.0001 18.6628ZM15.0001 9.16152C14.4001 9.16152 13.9001 9.66277 13.9001 10.2615V15.7865C13.9001 16.3878 14.4001 16.874 15.0001 16.874C15.6001 16.874 16.0876 16.3878 16.0876 15.7865V10.2615C16.0876 9.66277 15.6001 9.16152 15.0001 9.16152Z" fill="#E39D35"/>
</svg>
