<svg width="293" height="276" viewBox="0 0 293 276" fill="none" xmlns="http://www.w3.org/2000/svg">
<g filter="url(#filter0_b_1565_7131)">
<path d="M235 46.5H84.3435L108.976 89.337H159.672L134.323 133.419L159.672 177.5L235 46.5Z" fill="#0091FF"/>
<path d="M235 46.5H184.62L160.202 89.337L135.032 133.419L160.202 177.5L235 46.5Z" fill="#00B9FF"/>
<path d="M59 88.7573L109.688 177.499L135.032 133.129L109.688 88.7573H59Z" fill="#00B9FF"/>
<path d="M87.6151 202.519C88.9127 203.199 89.933 204.206 90.6766 205.538C91.4199 206.873 91.7919 208.482 91.7919 210.369V222.636H87.5201V211.012C87.5201 209.15 87.0538 207.722 86.1215 206.728C85.1893 205.734 83.9162 205.237 82.3046 205.237C80.6907 205.237 79.4124 205.734 78.4679 206.728C77.5226 207.722 77.0504 209.15 77.0504 211.012V222.636H72.7794V211.012C72.7794 209.15 72.3119 207.722 71.3808 206.728C70.4478 205.734 69.1758 205.237 67.5627 205.237C65.9499 205.237 64.6709 205.734 63.7257 206.728C62.7808 207.722 62.3085 209.15 62.3085 211.012V222.636H58V201.84H62.3085V204.218C63.0143 203.362 63.9087 202.696 64.992 202.218C66.0754 201.739 67.2352 201.5 68.4697 201.5C70.133 201.5 71.6195 201.853 72.9308 202.557C74.2403 203.261 75.2486 204.28 75.9548 205.614C76.5841 204.356 77.5668 203.356 78.9023 202.614C80.2374 201.872 81.6738 201.5 83.2116 201.5C84.8481 201.5 86.3165 201.84 87.6151 202.519Z" fill="white"/>
<path d="M115.728 201.5L103.004 232.5H98.5612L102.776 222.243L94.6077 201.5H99.3887L105.224 217.574L111.285 201.5H115.728Z" fill="white"/>
<path d="M131.341 221.763C130.025 221.181 128.984 220.389 128.217 219.385C127.452 218.383 127.043 217.263 126.992 216.024H131.513C131.589 216.89 132.017 217.615 132.797 218.197C133.574 218.779 134.551 219.07 135.727 219.07C136.952 219.07 137.904 218.841 138.581 218.383C139.258 217.925 139.597 217.337 139.597 216.618C139.597 215.851 139.219 215.281 138.466 214.909C137.712 214.538 136.518 214.13 134.884 213.684C133.3 213.263 132.01 212.855 131.014 212.458C130.019 212.063 129.156 211.456 128.429 210.638C127.7 209.821 127.337 208.743 127.337 207.406C127.337 206.317 127.669 205.321 128.333 204.416C128.996 203.512 129.948 202.8 131.187 202.281C132.425 201.76 133.85 201.5 135.459 201.5C137.86 201.5 139.794 202.089 141.263 203.264C142.732 204.441 143.517 206.044 143.62 208.074H139.252C139.175 207.159 138.793 206.428 138.103 205.883C137.413 205.339 136.48 205.067 135.306 205.067C134.157 205.067 133.276 205.277 132.662 205.697C132.049 206.12 131.742 206.676 131.742 207.369C131.742 207.914 131.947 208.372 132.356 208.744C132.765 209.115 133.262 209.407 133.851 209.617C134.438 209.827 135.307 210.094 136.456 210.415C137.987 210.812 139.246 211.214 140.229 211.623C141.212 212.032 142.061 212.632 142.776 213.425C143.492 214.217 143.863 215.269 143.888 216.582C143.888 217.746 143.556 218.786 142.892 219.702C142.227 220.618 141.289 221.337 140.077 221.857C138.862 222.377 137.439 222.636 135.804 222.636C134.143 222.635 132.656 222.344 131.341 221.763Z" fill="white"/>
<path d="M166.271 213.647H150.987C151.108 215.282 151.701 216.594 152.766 217.585C153.83 218.576 155.138 219.071 156.687 219.071C158.913 219.071 160.486 218.118 161.406 216.211H165.871C165.266 218.093 164.17 219.634 162.586 220.835C161.001 222.037 159.033 222.636 156.687 222.636C154.774 222.636 153.062 222.198 151.55 221.318C150.036 220.439 148.851 219.201 147.992 217.603C147.132 216.006 146.704 214.155 146.704 212.05C146.704 209.945 147.121 208.094 147.956 206.496C148.791 204.899 149.965 203.667 151.476 202.8C152.989 201.934 154.726 201.5 156.687 201.5C158.573 201.5 160.257 201.922 161.733 202.763C163.209 203.605 164.358 204.787 165.181 206.31C166.003 207.834 166.416 209.586 166.416 211.567C166.416 212.335 166.367 213.029 166.271 213.647ZM162.095 210.23C162.071 208.67 161.526 207.42 160.463 206.479C159.396 205.538 158.078 205.067 156.505 205.067C155.077 205.067 153.855 205.532 152.838 206.46C151.822 207.389 151.217 208.646 151.023 210.23H162.095V210.23Z" fill="white"/>
<path d="M179.811 218.723L185.747 201.5H190.351L182.36 222.636H177.184L169.231 201.5H173.874L179.811 218.723Z" fill="white"/>
<path d="M211.327 213.647H196.044C196.164 215.282 196.757 216.594 197.823 217.585C198.886 218.576 200.194 219.071 201.743 219.071C203.969 219.071 205.542 218.118 206.462 216.211H210.927C210.322 218.093 209.226 219.634 207.642 220.835C206.057 222.037 204.09 222.636 201.742 222.636C199.831 222.636 198.119 222.198 196.606 221.318C195.093 220.439 193.907 219.201 193.048 217.603C192.189 216.006 191.76 214.155 191.76 212.05C191.76 209.945 192.177 208.094 193.012 206.496C193.847 204.899 195.021 203.667 196.533 202.8C198.045 201.934 199.783 201.5 201.742 201.5C203.63 201.5 205.313 201.922 206.788 202.763C208.265 203.605 209.414 204.787 210.238 206.31C211.059 207.834 211.472 209.586 211.472 211.567C211.472 212.335 211.423 213.029 211.327 213.647ZM207.152 210.23C207.128 208.67 206.583 207.42 205.519 206.479C204.453 205.538 203.134 205.067 201.562 205.067C200.133 205.067 198.911 205.532 197.894 206.46C196.879 207.389 196.273 208.646 196.079 210.23H207.152V210.23Z" fill="white"/>
<path d="M230.023 202.519C231.27 203.199 232.245 204.206 232.947 205.539C233.649 206.873 234 208.482 234 210.37V222.636H229.896V211.012C229.896 209.15 229.447 207.722 228.552 206.728C227.656 205.734 226.433 205.237 224.885 205.237C223.334 205.237 222.106 205.734 221.198 206.728C220.29 207.722 219.836 209.15 219.836 211.012V222.636H215.696V201.841H219.836V204.218C220.514 203.363 221.38 202.696 222.433 202.218C223.485 201.74 224.605 201.5 225.792 201.5C227.365 201.501 228.776 201.841 230.023 202.519Z" fill="white"/>
</g>
<defs>
<filter id="filter0_b_1565_7131" x="-20" y="-20" width="333" height="316" filterUnits="userSpaceOnUse" color-interpolation-filters="sRGB">
<feFlood flood-opacity="0" result="BackgroundImageFix"/>
<feGaussianBlur in="BackgroundImageFix" stdDeviation="10"/>
<feComposite in2="SourceAlpha" operator="in" result="effect1_backgroundBlur_1565_7131"/>
<feBlend mode="normal" in="SourceGraphic" in2="effect1_backgroundBlur_1565_7131" result="shape"/>
</filter>
</defs>
</svg>
