<svg width="24" height="24" viewBox="0 0 24 24" fill="none" xmlns="http://www.w3.org/2000/svg">
<path d="M20.331 3.59125C18.7775 2.84787 17.1163 2.30762 15.3796 2C15.1663 2.39436 14.9172 2.92479 14.7454 3.34674C12.8992 3.0628 11.0701 3.0628 9.25789 3.34674C9.08613 2.92479 8.83129 2.39436 8.61609 2C6.87754 2.30762 5.21449 2.84986 3.66093 3.59518C0.527375 8.43786 -0.322079 13.1603 0.102649 17.8156C2.18098 19.4029 4.19514 20.3671 6.17531 20.998C6.66422 20.3099 7.10027 19.5784 7.47591 18.8074C6.76049 18.5294 6.07526 18.1863 5.42781 17.788C5.59957 17.6579 5.76759 17.5218 5.92991 17.3818C9.87893 19.2708 14.1696 19.2708 18.0715 17.3818C18.2357 17.5218 18.4037 17.6579 18.5736 17.788C17.9242 18.1883 17.2371 18.5313 16.5217 18.8094C16.8973 19.5784 17.3315 20.3119 17.8223 21C19.8044 20.369 21.8204 19.4049 23.8987 17.8156C24.3971 12.4189 23.0474 7.73984 20.331 3.59125ZM8.01391 14.9526C6.82845 14.9526 5.85629 13.8208 5.85629 12.4425C5.85629 11.0643 6.8077 9.93049 8.01391 9.93049C9.22016 9.93049 10.1923 11.0623 10.1715 12.4425C10.1734 13.8208 9.22016 14.9526 8.01391 14.9526ZM15.9875 14.9526C14.802 14.9526 13.8299 13.8208 13.8299 12.4425C13.8299 11.0643 14.7812 9.93049 15.9875 9.93049C17.1937 9.93049 18.1659 11.0623 18.1451 12.4425C18.1451 13.8208 17.1937 14.9526 15.9875 14.9526Z" fill="#5865F2"/>
</svg>
