<svg width="24" height="24" viewBox="0 0 24 24" fill="none" xmlns="http://www.w3.org/2000/svg">
<path d="M23.9562 21V20.5983L22.0842 18.7656C21.9196 18.6408 21.8373 18.434 21.8716 18.2305V4.76948C21.8373 4.56604 21.9196 4.35919 22.0842 4.23439L24.0007 2.40175V2H17.3682L12.6402 13.7617L7.26073 2H0.302447V2.40175L2.54473 5.0943C2.76416 5.29089 2.8773 5.58152 2.84645 5.87556V16.4543C2.91159 16.8355 2.79159 17.2253 2.52245 17.504L0.000732422 20.5538V20.9556H7.1493V20.5538L4.62759 17.504C4.35673 17.2253 4.22816 16.8389 4.2813 16.4543V7.30475L10.5556 20.9556H11.2842L16.6722 7.30475V18.1861C16.6722 18.4767 16.6722 18.5314 16.4819 18.7212L14.5447 20.5983V21H23.9562Z" fill="#1FD71B"/>
</svg>
