<svg width="24" height="24" viewBox="0 0 24 24" fill="none" xmlns="http://www.w3.org/2000/svg">
<path fill-rule="evenodd" clip-rule="evenodd" d="M20.2077 21.126L24.0007 1.7461C24.0007 0.451308 22.2494 1.23323 22.2494 1.24164L0.935164 9.70825C0.935164 9.70825 -0.0774299 10.053 0.00556964 10.7004C0.0885692 11.3478 0.910265 11.642 0.910265 11.642L6.27203 13.4665L8.55815 14.5822C8.26218 13.6347 7.99353 12.7725 7.99353 12.7725L16.6218 7.41377C16.6218 7.41377 17.1225 7.11999 17.1002 7.41377C17.1002 7.41377 17.1892 7.46817 16.9222 7.70755C16.6552 7.95236 10.1464 13.6756 10.1464 13.6756L9.80259 16.5199L9.67911 17.587C9.87381 17.6741 10.0574 17.5381 10.0574 17.5381L11.2856 16.4407L18.2157 21.8238C19.6765 22.4712 20.2077 21.126 20.2077 21.126Z" fill="#30B0E1"/>
</svg>
