<svg width="24" height="24" viewBox="0 0 24 24" fill="none" xmlns="http://www.w3.org/2000/svg">
<g clip-path="url(#clip0_8070_340596)">
<path d="M24.0007 4.55736C23.1177 4.94936 22.1687 5.21336 21.1727 5.33236C22.1897 4.72336 22.9707 3.75836 23.3377 2.60836C22.3867 3.17236 21.3327 3.58236 20.2107 3.80336C19.3137 2.84636 18.0327 2.24836 16.6167 2.24836C13.4377 2.24836 11.1017 5.21436 11.8197 8.29336C7.72873 8.08836 4.10073 6.12836 1.67173 3.14936C0.381732 5.36236 1.00273 8.25736 3.19473 9.72336C2.38873 9.69736 1.62873 9.47636 0.965732 9.10736C0.911732 11.3884 2.54673 13.5224 4.91473 13.9974C4.22173 14.1854 3.46273 14.2294 2.69073 14.0814C3.31673 16.0374 5.13473 17.4604 7.29073 17.5004C5.22073 19.1234 2.61273 19.8484 0.000732422 19.5404C2.17973 20.9374 4.76873 21.7524 7.54873 21.7524C16.6907 21.7524 21.8557 14.0314 21.5437 7.10636C22.5057 6.41136 23.3407 5.54436 24.0007 4.55736Z" fill="#24ACFF"/>
</g>
<defs>
<clipPath id="clip0_8070_340596">
<rect width="24" height="24" fill="white" transform="translate(0.000732422)"/>
</clipPath>
</defs>
</svg>
