<svg width="53" height="37" viewBox="0 0 53 37" fill="none" xmlns="http://www.w3.org/2000/svg">
<path d="M20.8669 18.0388L8.98721 37H0L7.74759 21.1136C5.88817 20.4303 4.30422 19.1662 2.99574 17.3213C1.68725 15.4081 1.03301 13.2899 1.03301 10.9668C1.03301 7.96029 2.10046 5.39797 4.23535 3.27977C6.43911 1.09326 9.05608 0 12.0862 0C15.1164 0 17.6989 1.09326 19.8338 3.27977C22.0376 5.39797 23.1395 7.96029 23.1395 10.9668C23.1395 13.0166 22.3819 15.374 20.8669 18.0388Z" fill="url(#paint0_linear_1462_6934)"/>
<path d="M50.7274 18.0388L38.8477 37H29.8605L37.6081 21.1136C35.7487 20.4303 34.1647 19.1662 32.8563 17.3213C31.5478 15.4081 30.8935 13.2899 30.8935 10.9668C30.8935 7.96029 31.961 5.39797 34.0959 3.27977C36.2996 1.09326 38.9166 0 41.9468 0C44.9769 0 47.5595 1.09326 49.6944 3.27977C51.8981 5.39797 53 7.96029 53 10.9668C53 13.0166 52.2425 15.374 50.7274 18.0388Z" fill="url(#paint1_linear_1462_6934)"/>
<defs>
<linearGradient id="paint0_linear_1462_6934" x1="0" y1="31.511" x2="53" y2="31.511" gradientUnits="userSpaceOnUse">
<stop stop-color="#1282E4"/>
<stop offset="1" stop-color="#0FD3E1"/>
</linearGradient>
<linearGradient id="paint1_linear_1462_6934" x1="0" y1="31.511" x2="53" y2="31.511" gradientUnits="userSpaceOnUse">
<stop stop-color="#1282E4"/>
<stop offset="1" stop-color="#0FD3E1"/>
</linearGradient>
</defs>
</svg>
