<?xml version="1.0" standalone="no"?>
<!DOCTYPE svg PUBLIC "-//W3C//DTD SVG 20010904//EN"
        "http://www.w3.org/TR/2001/REC-SVG-20010904/DTD/svg10.dtd">
<svg version="1.0" xmlns="http://www.w3.org/2000/svg"
     width="1023.000000pt" height="1023.000000pt" viewBox="0 0 1023.000000 1023.000000"
     preserveAspectRatio="xMidYMid meet">
    <metadata>
        Created by potrace 1.14, written by Peter Selinger 2001-2017
    </metadata>
    <g transform="translate(0.000000,1023.000000) scale(0.100000,-0.100000)"
       fill="#000000" stroke="none">
        <path d="M1533 8851 c12 -21 37 -64 55 -95 17 -31 32 -60 32 -66 0 -5 4 -10 8
-10 4 0 20 -24 35 -52 35 -65 74 -135 95 -168 9 -14 16 -28 15 -31 -1 -4 7
-15 17 -24 11 -10 20 -22 20 -27 0 -5 37 -73 83 -151 46 -78 86 -149 90 -157
4 -8 15 -28 26 -45 10 -16 27 -46 38 -65 11 -19 62 -107 113 -195 51 -88 102
-176 113 -195 11 -19 28 -48 38 -65 10 -16 25 -43 34 -60 8 -16 29 -52 46 -80
16 -27 33 -58 36 -67 3 -10 9 -18 14 -18 5 0 9 -4 9 -9 0 -6 29 -60 65 -121
36 -61 76 -130 89 -153 33 -60 52 -92 156 -272 145 -250 170 -295 167 -297 -1
0 -654 -2 -1452 -4 -797 -1 -1457 -3 -1465 -3 -10 -1 -11 -4 -4 -9 11 -7 34
-46 56 -94 7 -16 16 -28 20 -28 4 0 8 -4 8 -10 0 -5 18 -39 40 -75 22 -36 40
-70 40 -75 0 -6 5 -10 10 -10 6 0 10 -5 10 -11 0 -9 86 -162 129 -229 8 -14
16 -27 16 -30 0 -5 26 -48 132 -228 24 -41 43 -78 43 -83 0 -5 4 -9 8 -9 4 0
13 -12 20 -27 6 -16 23 -46 36 -68 14 -22 29 -49 35 -61 5 -12 25 -45 44 -75
18 -30 40 -69 48 -86 8 -18 17 -33 21 -33 5 0 8 -6 8 -14 0 -8 3 -16 8 -18 7
-3 43 -66 66 -115 6 -13 14 -23 19 -23 4 0 7 -4 7 -9 0 -9 53 -106 88 -161 9
-14 17 -27 17 -30 1 -11 60 -105 67 -108 4 -2 8 -8 8 -14 0 -5 41 -79 90 -164
50 -84 90 -156 90 -159 0 -4 13 -25 28 -48 16 -23 32 -49 35 -57 4 -8 18 -33
31 -55 14 -22 31 -51 39 -65 7 -14 58 -101 112 -195 54 -93 106 -184 116 -202
10 -17 29 -50 43 -72 15 -22 26 -42 26 -45 0 -3 185 -326 209 -366 42 -67 221
-384 221 -391 0 -5 5 -9 10 -9 6 0 10 -4 10 -10 0 -5 18 -39 40 -75 22 -36 40
-68 40 -71 0 -3 13 -25 30 -49 16 -24 30 -46 30 -50 0 -3 23 -44 50 -91 28
-47 50 -89 50 -94 0 -6 5 -10 10 -10 6 0 10 -4 10 -10 0 -5 17 -38 38 -72 21
-35 43 -74 50 -88 7 -14 34 -61 62 -105 27 -44 49 -86 50 -92 0 -7 5 -13 10
-13 6 0 10 -4 10 -10 0 -5 14 -33 31 -62 18 -29 41 -69 52 -88 10 -19 61 -107
112 -195 51 -88 105 -182 120 -210 16 -27 38 -65 50 -82 l22 -33 73 128 c40
70 84 147 98 172 14 25 33 57 43 72 11 14 19 29 19 32 0 3 14 29 31 58 18 29
63 107 100 173 38 66 73 127 79 135 27 43 60 104 60 111 0 5 5 9 10 9 6 0 10
6 10 14 0 8 6 21 13 28 6 7 19 27 27 43 8 17 35 64 59 105 24 41 58 100 74
130 17 30 33 57 37 60 3 3 19 30 34 60 16 30 31 57 35 60 3 3 15 24 26 47 11
24 23 43 28 43 4 0 7 6 7 14 0 7 7 19 15 26 8 7 12 16 9 21 -3 5 -1 9 4 9 6 0
15 12 21 28 7 15 23 45 36 67 13 22 34 58 46 80 12 22 26 43 31 46 5 3 10 10
10 15 0 8 86 163 119 214 5 8 15 26 21 40 7 14 15 27 18 30 3 3 11 16 19 30 8
14 30 52 49 85 52 90 82 142 142 248 50 88 70 113 70 88 0 -5 18 -39 40 -75
22 -36 40 -70 40 -76 0 -5 5 -10 10 -10 6 0 10 -6 10 -12 1 -7 23 -49 50 -93
28 -44 55 -92 61 -108 6 -15 15 -27 20 -27 5 0 9 -7 9 -14 0 -8 14 -35 30 -59
16 -25 30 -50 30 -56 0 -6 3 -11 8 -11 4 0 12 -10 18 -23 14 -29 63 -118 92
-165 12 -20 28 -49 34 -64 7 -16 16 -28 20 -28 4 0 8 -5 8 -10 0 -6 11 -27 23
-48 13 -20 35 -57 49 -82 53 -94 141 -246 156 -270 9 -14 17 -27 17 -30 0 -3
17 -33 38 -66 20 -34 37 -67 37 -73 0 -6 4 -11 9 -11 5 0 11 -8 14 -17 6 -19
24 -50 108 -189 27 -45 49 -86 49 -92 0 -6 3 -12 8 -14 6 -3 15 -17 61 -103 9
-16 18 -32 21 -35 3 -3 11 -16 18 -29 8 -13 23 -39 33 -58 18 -31 145 -251
230 -397 19 -32 46 -81 61 -109 15 -28 31 -54 36 -59 9 -9 82 102 82 123 0 5
4 9 9 9 5 0 13 10 17 23 4 12 23 49 44 82 20 34 39 68 43 75 4 8 15 29 25 45
10 17 30 50 44 75 14 25 64 112 112 194 47 82 86 151 86 153 0 2 12 20 26 38
14 19 25 37 24 40 0 3 15 32 34 64 20 32 36 63 36 69 0 6 3 12 8 14 4 2 43 66
87 142 101 176 104 180 261 454 73 125 140 243 150 262 11 19 21 37 25 40 3 3
34 56 70 118 35 62 69 121 74 130 6 10 37 65 70 122 33 58 64 113 70 122 5 9
40 70 78 135 37 65 79 138 94 163 30 52 37 64 133 230 40 69 115 199 168 290
53 91 104 181 114 200 11 19 37 64 59 100 21 36 45 76 51 90 7 14 15 27 19 30
3 3 8 12 12 20 3 8 20 38 37 65 16 28 33 57 37 65 7 15 76 133 93 160 6 8 13
22 17 30 4 8 24 43 45 78 21 34 38 65 38 67 0 3 11 22 24 43 12 20 24 42 25
47 1 6 8 17 15 25 7 8 16 22 20 30 3 8 16 31 27 50 12 19 33 55 47 80 14 25
33 57 43 72 11 14 19 28 19 31 0 3 36 66 80 141 44 76 80 138 80 140 0 2 25
45 55 95 30 51 55 93 55 95 0 3 84 148 126 216 8 14 23 41 32 60 9 19 20 37
23 40 4 3 17 23 28 45 12 22 26 47 31 55 5 8 32 53 58 100 27 47 93 162 147
255 54 94 107 186 118 205 11 19 28 49 39 65 10 17 21 38 24 48 4 9 10 17 15
17 5 0 9 5 9 11 0 9 78 150 110 199 6 8 13 22 17 30 3 8 21 39 40 68 18 29 33
54 33 56 0 3 27 50 60 106 33 56 60 103 60 105 0 2 18 33 40 69 22 36 40 70
40 76 0 5 5 10 10 10 6 0 10 4 10 9 0 8 51 100 135 241 18 30 44 75 57 100 35
63 138 241 153 265 7 11 13 25 14 30 1 6 8 17 15 25 8 8 19 25 25 38 l12 22
-4355 0 -4354 0 21 -39z m4320 -2430 c4 -1 -3 -20 -16 -43 -13 -24 -34 -61
-47 -83 -40 -72 -64 -110 -73 -116 -5 -3 -7 -8 -5 -10 3 -4 -24 -52 -159 -282
-35 -60 -63 -111 -63 -114 0 -3 -8 -17 -19 -31 -10 -15 -30 -48 -43 -73 -43
-78 -53 -94 -58 -99 -3 -3 -11 -16 -17 -30 -7 -14 -24 -43 -37 -65 -14 -22
-32 -53 -41 -70 -15 -30 -21 -41 -115 -200 -29 -49 -64 -110 -78 -135 -14 -25
-33 -58 -43 -75 -10 -16 -28 -48 -41 -70 -12 -22 -29 -52 -37 -67 -18 -31
-130 -224 -146 -250 -5 -9 -17 -29 -26 -45 -42 -76 -214 -373 -235 -405 -13
-21 -21 -38 -17 -38 5 0 3 -4 -3 -8 -8 -6 -57 -85 -108 -177 -6 -11 -15 -26
-19 -33 -6 -9 -25 15 -63 79 -30 50 -54 92 -54 94 0 1 -37 65 -81 141 -45 76
-92 157 -104 179 -12 22 -51 90 -87 151 -35 61 -68 117 -71 125 -4 8 -11 21
-17 29 -27 40 -140 242 -140 251 0 5 -4 9 -10 9 -5 0 -10 4 -10 9 0 8 -22 47
-71 129 -9 15 -27 47 -41 72 -14 25 -51 90 -83 145 -32 55 -65 114 -73 130 -9
17 -18 32 -22 35 -3 3 -61 102 -129 220 -68 118 -133 231 -144 250 -11 19 -33
60 -50 90 -16 30 -37 63 -45 73 -8 9 -11 17 -6 17 5 0 4 4 -2 8 -10 7 -81 126
-112 187 -8 17 -24 42 -34 57 -11 16 -17 31 -15 35 4 6 2861 9 2910 4z"/>
    </g>
</svg>
