<svg width="20" height="20" viewBox="0 0 20 20" fill="none" xmlns="http://www.w3.org/2000/svg">
<path d="M16.9419 2.99271C15.6473 2.37323 14.263 1.92302 12.8157 1.66667C12.638 1.99531 12.4304 2.43733 12.2872 2.78896C10.7488 2.55234 9.22445 2.55234 7.7143 2.78896C7.57116 2.43733 7.3588 1.99531 7.17947 1.66667C5.73067 1.92302 4.3448 2.37489 3.05016 2.99599C0.438869 7.03155 -0.269009 10.9669 0.0849306 14.8463C1.81688 16.1691 3.49534 16.9726 5.14548 17.4984C5.55291 16.9249 5.91628 16.3153 6.22931 15.6728C5.63313 15.4412 5.06211 15.1553 4.52256 14.8233C4.6657 14.7149 4.80571 14.6015 4.94098 14.4848C8.23183 16.059 11.8074 16.059 15.0589 14.4848C15.1958 14.6015 15.3358 14.7149 15.4774 14.8233C14.9362 15.1569 14.3637 15.4428 13.7675 15.6745C14.0805 16.3153 14.4423 16.9266 14.8513 17.5C16.503 16.9742 18.1831 16.1707 19.915 14.8463C20.3303 10.3491 19.2056 6.44987 16.9419 2.99271ZM6.67765 12.4605C5.68977 12.4605 4.87963 11.5173 4.87963 10.3688C4.87963 9.22022 5.67247 8.27541 6.67765 8.27541C7.68285 8.27541 8.49297 9.21856 8.47567 10.3688C8.47723 11.5173 7.68285 12.4605 6.67765 12.4605ZM13.3223 12.4605C12.3344 12.4605 11.5243 11.5173 11.5243 10.3688C11.5243 9.22022 12.3171 8.27541 13.3223 8.27541C14.3275 8.27541 15.1376 9.21856 15.1203 10.3688C15.1203 11.5173 14.3275 12.4605 13.3223 12.4605Z" fill="white"/>
</svg>
