<svg width="20" height="20" viewBox="0 0 20 20" fill="none" xmlns="http://www.w3.org/2000/svg">
<g clip-path="url(#clip0_8023_340641)">
<path d="M10.0006 0C7.28485 0 6.94403 0.0118752 5.87738 0.0604169C4.81282 0.109167 4.08617 0.277708 3.45035 0.525C2.79265 0.780417 2.23475 1.12208 1.67893 1.67813C1.12269 2.23396 0.781026 2.79187 0.524781 3.44937C0.276869 4.08542 0.108123 4.81229 0.060207 5.87646C0.0124997 6.94312 0 7.28417 0 10C0 12.7158 0.0120833 13.0556 0.0604157 14.1223C0.109373 15.1869 0.277911 15.9135 0.52499 16.5494C0.78061 17.2071 1.12227 17.765 1.6783 18.3208C2.23391 18.8771 2.79182 19.2196 3.4491 19.475C4.08534 19.7223 4.8122 19.8908 5.87655 19.9396C6.9432 19.9881 7.28381 20 9.99938 20C12.7154 20 13.0552 19.9881 14.1218 19.9396C15.1864 19.8908 15.9139 19.7223 16.5501 19.475C17.2076 19.2196 17.7646 18.8771 18.3203 18.3208C18.8765 17.765 19.2182 17.2071 19.4744 16.5496C19.7202 15.9135 19.889 15.1867 19.939 14.1225C19.9869 13.0558 19.9994 12.7158 19.9994 10C19.9994 7.28417 19.9869 6.94333 19.939 5.87667C19.889 4.81208 19.7202 4.08542 19.4744 3.44958C19.2182 2.79187 18.8765 2.23396 18.3203 1.67813C17.764 1.12188 17.2078 0.780208 16.5495 0.525C15.912 0.277708 15.1849 0.109167 14.1203 0.0604169C13.0537 0.0118752 12.7141 0 9.99751 0H10.0006ZM9.10357 1.80208C9.36981 1.80167 9.66689 1.80208 10.0006 1.80208C12.6706 1.80208 12.987 1.81167 14.0414 1.85958C15.0164 1.90417 15.5455 2.06708 15.898 2.20396C16.3647 2.38521 16.6974 2.60187 17.0472 2.95187C17.3972 3.30187 17.6138 3.63521 17.7955 4.10187C17.9324 4.45396 18.0955 4.98312 18.1398 5.95812C18.1878 7.01229 18.1982 7.32896 18.1982 9.99771C18.1982 12.6665 18.1878 12.9831 18.1398 14.0373C18.0953 15.0123 17.9324 15.5415 17.7955 15.8935C17.6142 16.3602 17.3972 16.6925 17.0472 17.0423C16.6972 17.3923 16.3649 17.609 15.898 17.7902C15.5459 17.9277 15.0164 18.0902 14.0414 18.1348C12.9872 18.1827 12.6706 18.1931 10.0006 18.1931C7.33048 18.1931 7.01403 18.1827 5.95988 18.1348C4.9849 18.0898 4.45574 17.9269 4.10304 17.79C3.63639 17.6087 3.30306 17.3921 2.95307 17.0421C2.60307 16.6921 2.38641 16.3596 2.20475 15.8927C2.06788 15.5406 1.90475 15.0115 1.86038 14.0365C1.81246 12.9823 1.80288 12.6656 1.80288 9.99521C1.80288 7.32479 1.81246 7.00979 1.86038 5.95563C1.90496 4.98063 2.06788 4.45146 2.20475 4.09896C2.38599 3.63229 2.60307 3.29896 2.95307 2.94896C3.30306 2.59896 3.63639 2.38229 4.10304 2.20062C4.45554 2.06312 4.9849 1.90063 5.95988 1.85583C6.88236 1.81417 7.23986 1.80167 9.10357 1.79958V1.80208ZM15.3384 3.4625C14.676 3.4625 14.1385 3.99937 14.1385 4.66208C14.1385 5.32458 14.676 5.86208 15.3384 5.86208C16.0009 5.86208 16.5384 5.32458 16.5384 4.66208C16.5384 3.99958 16.0009 3.46208 15.3384 3.46208V3.4625ZM10.0006 4.86458C7.16465 4.86458 4.86532 7.16396 4.86532 10C4.86532 12.836 7.16465 15.1344 10.0006 15.1344C12.8366 15.1344 15.1351 12.836 15.1351 10C15.1351 7.16396 12.8364 4.86458 10.0004 4.86458H10.0006ZM10.0006 6.66667C11.8414 6.66667 13.3339 8.15896 13.3339 10C13.3339 11.8408 11.8414 13.3333 10.0006 13.3333C8.15963 13.3333 6.66737 11.8408 6.66737 10C6.66737 8.15896 8.15963 6.66667 10.0006 6.66667Z" fill="white"/>
</g>
<defs>
<clipPath id="clip0_8023_340641">
<rect width="20" height="20" fill="white"/>
</clipPath>
</defs>
</svg>
