<svg width="20" height="20" viewBox="0 0 20 20" fill="none" xmlns="http://www.w3.org/2000/svg">
<path d="M19.9629 17.5V17.1652L18.4029 15.638C18.2657 15.534 18.1971 15.3616 18.2257 15.1921V3.97457C18.1971 3.80504 18.2657 3.63266 18.4029 3.52866L20 2.00146V1.66667H14.4729L10.5329 11.4681L6.05 1.66667H0.251428V2.00146L2.12 4.24525C2.30286 4.40908 2.39714 4.65127 2.37143 4.89631V13.7119C2.42571 14.0296 2.32571 14.3544 2.10143 14.5866L0 17.1282V17.463H5.95714V17.1282L3.85571 14.5866C3.63 14.3544 3.52286 14.0325 3.56714 13.7119V6.0873L8.79571 17.463H9.40286L13.8929 6.0873V15.1551C13.8929 15.3973 13.8929 15.4428 13.7343 15.601L12.12 17.1652V17.5H19.9629Z" fill="white"/>
</svg>
