<svg width="20" height="20" viewBox="0 0 20 20" fill="none" xmlns="http://www.w3.org/2000/svg">
<path fill-rule="evenodd" clip-rule="evenodd" d="M16.8391 17.605L20 1.45508C20 0.376085 18.5406 1.02769 18.5406 1.03469L0.778693 8.0902C0.778693 8.0902 -0.0651352 8.37747 0.00403102 8.91697C0.0731973 9.45646 0.757943 9.70169 0.757943 9.70169L5.22608 11.2221L7.13118 12.1518C6.88454 11.3623 6.66067 10.6437 6.66067 10.6437L13.8509 6.17814C13.8509 6.17814 14.2681 5.93332 14.2496 6.17814C14.2496 6.17814 14.3237 6.22347 14.1012 6.42295C13.8787 6.62696 8.45474 11.3963 8.45474 11.3963L8.16819 13.7667L8.06531 14.6558C8.22757 14.7284 8.38055 14.615 8.38055 14.615L9.40405 13.7005L15.1791 18.1865C16.3964 18.726 16.8391 17.605 16.8391 17.605Z" fill="white"/>
</svg>
