<svg width="20" height="20" viewBox="0 0 20 20" fill="none" xmlns="http://www.w3.org/2000/svg">
<g clip-path="url(#clip0_8023_340652)">
<path d="M20 3.79779C19.2642 4.12446 18.4733 4.34446 17.6433 4.44363C18.4908 3.93613 19.1417 3.13196 19.4475 2.17363C18.655 2.64363 17.7767 2.98529 16.8417 3.16946C16.0942 2.37196 15.0267 1.87363 13.8467 1.87363C11.1975 1.87363 9.25083 4.34529 9.84917 6.91113C6.44 6.74029 3.41667 5.10696 1.3925 2.62446C0.3175 4.46863 0.835 6.88113 2.66167 8.10279C1.99 8.08113 1.35667 7.89696 0.804167 7.58946C0.759167 9.49029 2.12167 11.2686 4.095 11.6645C3.5175 11.8211 2.885 11.8578 2.24167 11.7345C2.76333 13.3645 4.27833 14.5503 6.075 14.5836C4.35 15.9361 2.17667 16.5403 0 16.2836C1.81583 17.4478 3.97333 18.127 6.29 18.127C13.9083 18.127 18.2125 11.6928 17.9525 5.92196C18.7542 5.34279 19.45 4.62029 20 3.79779Z" fill="white"/>
</g>
<defs>
<clipPath id="clip0_8023_340652">
<rect width="20" height="20" fill="white"/>
</clipPath>
</defs>
</svg>
