<svg width="30" height="30" viewBox="0 0 30 30" fill="none" xmlns="http://www.w3.org/2000/svg">
<path fill-rule="evenodd" clip-rule="evenodd" d="M30 15.0001C30 23.2844 23.2843 30.0001 15 30.0001C6.71573 30.0001 0 23.2844 0 15.0001C0 6.71585 6.71573 0.00012207 15 0.00012207C23.2843 0.00012207 30 6.71585 30 15.0001ZM18.2083 20.0031L16.6042 21.6707L23.25 21.7501L21.7222 20.0031V9.91777L23.25 8.25012H18.5903L15.3819 16.4295L11.7153 8.25012H6.82639L8.73611 10.7913V18.9707L6.75 21.3531V21.7501H11.6389V21.3531L9.72917 18.9707V12.0619L14.0069 21.7501H14.4653L18.2083 12.2207V20.0031Z" fill="#00DE78"/>
</svg>
