<svg width="30" height="30" viewBox="0 0 30 30" fill="none" xmlns="http://www.w3.org/2000/svg">
<path d="M15 30.001C23.2843 30.001 30 23.2852 30 15.001C30 6.7167 23.2843 0.000976562 15 0.000976562C6.71573 0.000976562 0 6.7167 0 15.001C0 23.2852 6.71573 30.001 15 30.001Z" fill="url(#paint0_linear_2866_31853)"/>
<path d="M22.4854 8.79612C22.6189 7.9331 21.7984 7.25192 21.0311 7.58883L5.74781 14.299C5.19753 14.5406 5.23779 15.3742 5.80851 15.5559L8.96025 16.5596C9.56186 16.7512 10.2132 16.652 10.7385 16.2892L17.8444 11.3799C18.0587 11.2318 18.2923 11.5365 18.1092 11.7252L12.9942 16.9988C12.498 17.5104 12.5965 18.3773 13.1934 18.7515L18.9201 22.3427C19.5625 22.7455 20.3888 22.3409 20.5089 21.5647L22.4854 8.79612Z" fill="white"/>
<defs>
<linearGradient id="paint0_linear_2866_31853" x1="15" y1="0.000976562" x2="15" y2="30.001" gradientUnits="userSpaceOnUse">
<stop stop-color="#37BBFE"/>
<stop offset="1" stop-color="#007DBB"/>
</linearGradient>
</defs>
</svg>
