<svg width="30" height="30" viewBox="0 0 30 30" fill="none" xmlns="http://www.w3.org/2000/svg">
<path d="M15 30.001C23.2843 30.001 30 23.2852 30 15.001C30 6.7167 23.2843 0.000976562 15 0.000976562C6.71573 0.000976562 0 6.7167 0 15.001C0 23.2852 6.71573 30.001 15 30.001Z" fill="#1DA1F2"/>
<path fill-rule="evenodd" clip-rule="evenodd" d="M24 9.23243C23.3383 9.52643 22.6261 9.72443 21.8791 9.81383C22.6417 9.35663 23.2273 8.6331 23.5026 7.77098C22.7899 8.1945 21.9986 8.5011 21.158 8.6673C20.4842 7.94978 19.5237 7.50098 18.4624 7.50098C16.4231 7.50098 14.7696 9.1545 14.7696 11.1938C14.7696 11.4829 14.8026 11.7649 14.8656 12.0355C11.7962 11.8819 9.07537 10.4114 7.25392 8.1771C6.93592 8.7225 6.75412 9.35663 6.75412 10.0334C6.75412 11.3144 7.40512 12.4447 8.39685 13.107C7.79085 13.0878 7.22212 12.9216 6.72352 12.645V12.6912C6.72352 14.4809 7.99725 15.973 9.68558 16.3132C9.37598 16.3972 9.04958 16.4428 8.71305 16.4428C8.47485 16.4428 8.24325 16.4194 8.01765 16.3762C8.48745 17.8431 9.85177 18.911 11.4674 18.941C10.2039 19.931 8.61165 20.5219 6.88133 20.5219C6.58253 20.5219 6.2886 20.5045 6 20.4697C7.63433 21.5173 9.57518 22.1292 11.6606 22.1292C18.4528 22.1292 22.1671 16.5022 22.1671 11.6227C22.1671 11.4625 22.1642 11.303 22.1564 11.1452C22.8787 10.6232 23.505 9.97283 24 9.23243Z" fill="white"/>
</svg>
